<svg width="30" height="31" viewBox="0 0 30 31" fill="none" xmlns="http://www.w3.org/2000/svg">
<g clip-path="url(#clip0_664_274)">
<path d="M21.6667 12.1666C21.6667 7.56242 16.8177 3.83325 10.8333 3.83325C4.84896 3.83325 0 7.56242 0 12.1666C0 13.953 0.734375 15.5989 1.97917 16.9582C1.28125 18.5312 0.130208 19.7812 0.114583 19.7968C0 19.9166 -0.03125 20.0937 0.0364583 20.2499C0.104167 20.4062 0.25 20.4999 0.416667 20.4999C2.32292 20.4999 3.90104 19.8593 5.03646 19.1978C6.71354 20.0155 8.69792 20.4999 10.8333 20.4999C16.8177 20.4999 21.6667 16.7707 21.6667 12.1666ZM28.0208 23.6249C29.2656 22.2707 30 20.6197 30 18.8332C30 15.3489 27.2135 12.3645 23.2656 11.1197C23.3125 11.4635 23.3333 11.8124 23.3333 12.1666C23.3333 17.6822 17.724 22.1666 10.8333 22.1666C10.2708 22.1666 9.72396 22.1249 9.18229 22.0676C10.8229 25.0624 14.6771 27.1666 19.1667 27.1666C21.3021 27.1666 23.2865 26.6874 24.9635 25.8645C26.099 26.526 27.6771 27.1666 29.5833 27.1666C29.75 27.1666 29.901 27.0676 29.9635 26.9166C30.0312 26.7655 30 26.5885 29.8854 26.4635C29.8698 26.4478 28.7187 25.203 28.0208 23.6249Z" fill="#4F9CF9"/>
</g>
<defs>
<clipPath id="clip0_664_274">
<rect width="30" height="30" fill="white" transform="translate(0 0.5)"/>
</clipPath>
</defs>
</svg>
