<svg width="30" height="31" viewBox="0 0 30 31" fill="none" xmlns="http://www.w3.org/2000/svg">
<g clip-path="url(#clip0_664_266)">
<path d="M20.625 15.5H9.375V19.25H20.625V15.5ZM25.8398 6.65234L20.1035 0.910156C19.8398 0.646484 19.4824 0.5 19.1074 0.5H18.75V8H26.25V7.64258C26.25 7.27344 26.1035 6.91602 25.8398 6.65234ZM16.875 8.46875V0.5H5.15625C4.37695 0.5 3.75 1.12695 3.75 1.90625V29.0938C3.75 29.873 4.37695 30.5 5.15625 30.5H24.8438C25.623 30.5 26.25 29.873 26.25 29.0938V9.875H18.2812C17.5078 9.875 16.875 9.24219 16.875 8.46875ZM7.5 4.71875C7.5 4.45977 7.70977 4.25 7.96875 4.25H12.6562C12.9152 4.25 13.125 4.45977 13.125 4.71875V5.65625C13.125 5.91523 12.9152 6.125 12.6562 6.125H7.96875C7.70977 6.125 7.5 5.91523 7.5 5.65625V4.71875ZM7.5 8.46875C7.5 8.20977 7.70977 8 7.96875 8H12.6562C12.9152 8 13.125 8.20977 13.125 8.46875V9.40625C13.125 9.66523 12.9152 9.875 12.6562 9.875H7.96875C7.70977 9.875 7.5 9.66523 7.5 9.40625V8.46875ZM22.5 26.2812C22.5 26.5402 22.2902 26.75 22.0312 26.75H17.3438C17.0848 26.75 16.875 26.5402 16.875 26.2812V25.3438C16.875 25.0848 17.0848 24.875 17.3438 24.875H22.0312C22.2902 24.875 22.5 25.0848 22.5 25.3438V26.2812ZM22.5 14.5625V20.1875C22.5 20.7055 22.0805 21.125 21.5625 21.125H8.4375C7.91953 21.125 7.5 20.7055 7.5 20.1875V14.5625C7.5 14.0445 7.91953 13.625 8.4375 13.625H21.5625C22.0805 13.625 22.5 14.0445 22.5 14.5625Z" fill="#4F9CF9"/>
</g>
<defs>
<clipPath id="clip0_664_266">
<rect width="30" height="30" fill="white" transform="translate(0 0.5)"/>
</clipPath>
</defs>
</svg>
