<svg width="24" height="25" viewBox="0 0 24 25" fill="none" xmlns="http://www.w3.org/2000/svg">
<path d="M17.9999 4.91057C16.4086 3.31928 14.2504 2.42529 11.9999 2.42529C9.74949 2.42529 7.59123 3.31928 5.99993 4.91057C4.40863 6.50187 3.51465 8.66014 3.51465 10.9106C3.51465 13.161 4.40863 15.3193 5.99993 16.9106L11.2699 22.1906C11.3629 22.2843 11.4735 22.3587 11.5954 22.4095C11.7172 22.4602 11.8479 22.4864 11.9799 22.4864C12.1119 22.4864 12.2426 22.4602 12.3645 22.4095C12.4864 22.3587 12.597 22.2843 12.6899 22.1906L17.9999 16.8606C19.5846 15.2759 20.4748 13.1266 20.4748 10.8856C20.4748 8.64452 19.5846 6.49525 17.9999 4.91057ZM16.5699 15.4306L11.9999 20.0206L7.42993 15.4306C6.52707 14.5269 5.91241 13.3758 5.66362 12.1229C5.41484 10.8699 5.54312 9.57132 6.03223 8.39125C6.52135 7.21119 7.34935 6.20262 8.41156 5.49305C9.47377 4.78348 10.7225 4.40476 11.9999 4.40476C13.2773 4.40476 14.5261 4.78348 15.5883 5.49305C16.6505 6.20262 17.4785 7.21119 17.9676 8.39125C18.4567 9.57132 18.585 10.8699 18.3362 12.1229C18.0875 13.3758 17.4728 14.5269 16.5699 15.4306ZM8.99993 7.84057C8.19264 8.65035 7.73932 9.74714 7.73932 10.8906C7.73932 12.034 8.19264 13.1308 8.99993 13.9406C9.59969 14.5414 10.3635 14.9517 11.1956 15.12C12.0276 15.2883 12.8909 15.2072 13.677 14.8867C14.4631 14.5663 15.1371 14.0209 15.6144 13.3188C16.0917 12.6168 16.3511 11.7894 16.3599 10.9406C16.3644 10.3738 16.2553 9.81183 16.0388 9.28796C15.8224 8.76409 15.5032 8.28893 15.0999 7.89057C14.7036 7.48515 14.231 7.16211 13.7094 6.94004C13.1877 6.71797 12.6273 6.60125 12.0603 6.5966C11.4934 6.59196 10.9311 6.69947 10.4059 6.91296C9.88067 7.12645 9.40285 7.4417 8.99993 7.84057ZM13.6899 12.5206C13.311 12.9053 12.8101 13.1465 12.2731 13.2028C11.736 13.2592 11.196 13.1272 10.7454 12.8295C10.2949 12.5318 9.96173 12.0868 9.80294 11.5707C9.64415 11.0545 9.66958 10.4992 9.87489 9.99973C10.0802 9.50025 10.4526 9.08759 10.9285 8.83231C11.4044 8.57703 11.9542 8.49498 12.4839 8.60019C13.0135 8.7054 13.4902 8.99133 13.8324 9.40911C14.1746 9.82688 14.3611 10.3505 14.3599 10.8906C14.3454 11.5078 14.0864 12.0941 13.6399 12.5206H13.6899Z" fill="white"/>
</svg>
