<svg width="1920" height="556" viewBox="0 0 1920 556" fill="none" xmlns="http://www.w3.org/2000/svg">
<g opacity="0.3">
<path d="M649.363 555.866C639.867 555.866 630.624 555.412 621.741 554.507C603.113 552.606 585.902 548.705 570.587 542.909C554.126 536.682 539.689 528.197 527.672 517.691C503.522 496.573 491.44 471.283 479.754 446.825C477.458 442.022 475.085 437.057 472.675 432.238C456.232 399.398 435.389 370.631 408.957 344.295C356.231 291.759 282.08 246.923 194.517 214.634C93.2513 177.295 -15.6259 158.695 -112.061 162.261C-168.74 164.359 -243.629 184.3 -277.099 218.357C-296.962 238.569 -298.564 261 -281.728 283.22L-282.062 283.314C-290.89 271.66 -294.736 259.978 -293.491 248.591C-292.348 238.145 -286.941 227.933 -277.415 218.241C-262.265 202.825 -237.281 189.161 -205.163 178.726C-175.485 169.085 -142.43 163.158 -112.083 162.036C-61.6152 160.171 -7.94077 164.31 47.4492 174.34C97.6595 183.433 147.205 196.924 194.708 214.44C282.322 246.746 356.517 291.607 409.273 344.174C435.719 370.528 456.574 399.311 473.028 432.169C475.442 436.987 477.815 441.955 480.107 446.758C491.782 471.198 503.857 496.47 527.974 517.557C551.297 537.952 582.868 550.308 621.804 554.279C675.724 559.779 741.202 548.275 796.952 523.504C877.293 487.809 933.05 435.851 986.974 385.607C996.426 376.8 1006.2 367.693 1015.87 358.9C1040.99 336.065 1075.02 306.475 1115.45 280.114C1156.77 253.17 1198.77 233.373 1243.84 219.591C1271.42 211.155 1300.66 205.472 1330.73 202.699C1358.5 200.137 1387.9 199.978 1418.11 202.223C1469.93 206.076 1525.75 216.958 1588.77 235.488C1712.87 271.98 1836.83 316.273 1957.21 367.139C2071.63 415.485 2183.85 470.192 2290.75 529.736L2290.5 529.901C2068.91 406.47 1832.76 307.483 1588.61 235.69C1450.68 195.129 1341.18 190.076 1244 219.79C1145.14 250.019 1076.08 304.572 1016.18 359.022C1006.51 367.814 996.735 376.921 987.283 385.728C933.344 435.99 877.568 487.963 797.172 523.683C771.193 535.227 741.966 544.231 712.655 549.72C697.171 552.62 681.778 554.516 666.9 555.356C660.971 555.699 655.119 555.866 649.363 555.866Z" fill="#FFE492"/>
<path d="M658.648 543.343C634.431 543.343 612.001 540.537 591.954 534.999C569.6 528.823 550.31 519.254 534.617 506.558C533.228 505.434 531.851 504.271 530.521 503.1C506.628 482.073 494.009 457.112 481.81 432.972C479.341 428.093 476.791 423.046 474.205 418.15C458.802 388.994 440.254 363.297 417.496 339.595C414.693 336.677 411.791 333.753 408.864 330.904C355.362 278.819 280.608 234.551 192.685 202.885C90.6888 166.183 -18.4969 148.352 -114.759 152.678C-171.027 155.234 -245.571 175.502 -279.184 209.297C-299.312 229.534 -301.589 252.009 -285.778 274.294L-286.116 274.384C-294.404 262.703 -297.809 250.999 -296.233 239.598C-294.786 229.127 -289.158 218.894 -279.5 209.181C-264.196 193.792 -239.286 180.113 -207.469 169.624C-178.062 159.929 -145.15 153.832 -114.792 152.455C-64.3871 150.19 -10.6539 153.933 44.9125 163.578C95.244 172.316 145.024 185.476 192.869 202.693C280.843 234.377 355.637 278.672 409.172 330.786C412.1 333.636 415.006 336.563 417.809 339.483C440.581 363.201 459.14 388.911 474.551 418.083C477.14 422.979 479.69 428.026 482.158 432.907C494.355 457.032 506.962 481.975 530.822 502.972C532.148 504.139 533.526 505.302 534.911 506.424C567.341 532.667 611.901 543.343 658.761 543.343C659.019 543.343 659.272 543.343 659.529 543.343C659.235 543.341 658.941 543.343 658.648 543.343ZM668.643 543.186C712.208 541.825 757.161 531.636 795.727 516.479C878.914 483.65 938.702 432.945 996.524 383.91C998.904 381.889 1001.28 379.872 1003.67 377.855C1008.89 373.428 1015.09 368.187 1021.42 362.904C1049.79 339.21 1084.14 311.642 1123.69 286.828C1165.78 260.425 1207.82 240.832 1252.22 226.927C1279.51 218.393 1308.34 212.381 1337.92 209.058C1365.33 205.979 1394.3 205.11 1424.01 206.471C1475.33 208.826 1530.51 217.751 1592.71 233.76C1653.36 249.344 1703.21 264.014 1749.59 279.926C1815.31 302.491 1877.9 328.489 1930.46 350.944C2052.67 403.299 2172.57 462.749 2286.85 527.643L2286.6 527.806C2172.34 462.921 2052.45 403.476 1930.26 351.128C1877.7 328.675 1815.11 302.681 1749.42 280.123C1703.04 264.215 1653.21 249.55 1592.57 233.97C1457.07 199.095 1348.98 196.92 1252.39 227.128C1152.15 258.516 1080.76 313.739 1021.71 363.038C1015.38 368.321 1009.19 373.56 1003.96 377.989C1001.58 380.004 999.202 382.023 996.821 384.044C938.981 433.094 879.172 483.817 795.925 516.671C775.283 524.783 753.319 531.227 730.638 535.822C709.526 540.094 688.716 542.565 668.643 543.186Z" fill="#FFE492"/>
<path d="M668.885 531.107C665.972 531.107 663.077 531.069 660.205 530.99C636.01 530.34 613.62 526.961 593.658 520.945C571.826 514.364 552.911 504.618 537.441 491.974C536.068 490.848 534.697 489.683 533.375 488.511C509.75 467.588 496.606 442.96 483.899 419.145C481.251 414.182 478.51 409.048 475.733 404.067C459.569 375.009 440.533 349.518 417.529 326.135C414.682 323.244 411.736 320.345 408.764 317.518C354.487 265.888 279.131 222.188 190.848 191.143C88.1241 155.078 -21.3701 138.014 -117.463 143.101C-171.567 146.009 -245.895 165.122 -281.234 200.207C-301.652 220.477 -304.624 243.013 -289.831 265.376L-290.172 265.458C-297.923 253.742 -300.881 242.011 -298.97 230.59C-297.214 220.086 -291.351 209.826 -281.547 200.091C-266.081 184.737 -241.251 171.053 -209.74 160.516C-180.608 150.774 -147.847 144.511 -117.496 142.879C-67.1501 140.216 -13.3581 143.561 42.3809 152.822C92.8373 161.207 142.849 174.034 191.032 190.95C279.366 222.016 354.762 265.74 409.072 317.4C412.044 320.228 414.994 323.128 417.841 326.024C440.856 349.42 459.903 374.927 476.075 404C478.852 408.983 481.592 414.117 484.241 419.081C496.944 442.881 510.077 467.492 533.672 488.39C534.995 489.562 536.358 490.725 537.732 491.847C600.59 543.223 711.987 537.707 794.499 509.452C881.158 479.516 945.56 429.761 1007.84 381.645L1008.48 381.151C1014.51 376.487 1020.75 371.667 1026.96 366.907C1092.47 316.689 1164.47 265.081 1260.61 234.259C1287.6 225.624 1316.04 219.283 1345.13 215.413C1372.18 211.813 1400.71 210.232 1429.91 210.715C1480.82 211.556 1535.37 218.528 1596.66 232.028C1661.08 246.165 1709.56 259.16 1753.85 274.165C1816.95 295.587 1878.07 322.656 1932 346.54C2052.07 400.002 2170.15 460.227 2282.96 525.539L2282.7 525.7C2169.91 460.395 2051.84 400.176 1931.78 346.719C1877.86 322.84 1816.75 295.775 1753.67 274.359C1709.4 259.359 1660.93 246.369 1596.54 232.236C1463.67 202.973 1356.98 203.677 1260.78 234.454C1164.71 265.255 1092.73 316.841 1027.25 367.041C1021.04 371.801 1014.8 376.624 1008.77 381.285L1008.13 381.78C977.09 405.757 944.998 430.551 910.341 452.697C871.394 477.584 833.56 496.211 794.675 509.642C753.994 523.572 709.68 531.107 668.885 531.107Z" fill="#FFE492"/>
<path d="M2278.81 523.592C2167.48 457.866 2051.24 396.874 1933.32 342.31C1928.32 340.016 1923.32 337.71 1918.3 335.398C1867.22 311.873 1814.4 287.546 1757.93 268.595C1703.14 250.261 1647.61 239.05 1600.51 230.503C1470.52 206.762 1365.23 210.346 1269.18 241.778C1170.58 274.14 1094.18 327.87 1032.79 371.045C1029.1 373.636 1025.43 376.232 1021.74 378.83C1019.02 380.749 1016.3 382.667 1013.58 384.583C978.625 409.191 946.83 431.192 911.7 451.268C871.566 474.201 832.884 490.997 793.433 502.617C756.463 513.508 716.968 519.27 680.232 519.272C673.539 519.272 666.945 519.082 660.465 518.695C636.807 517.284 614.905 513.32 595.369 506.912C574.052 499.921 555.511 489.989 540.255 477.392C538.892 476.263 537.533 475.096 536.218 473.922C512.872 453.108 499.218 428.827 486.015 405.345C483.171 400.288 480.229 395.056 477.253 389.978C460.318 361.013 440.789 335.725 417.558 312.669C414.667 309.8 411.673 306.927 408.66 304.125C353.605 252.949 277.65 209.816 189.011 179.391C85.5595 143.963 -24.2397 127.671 -120.164 133.511C-185.741 137.582 -252.798 161.251 -283.237 191.066C-303.974 211.379 -307.652 233.986 -293.879 256.443L-294.225 256.521C-301.436 244.763 -303.949 232.996 -301.693 221.546C-299.617 211.004 -293.512 200.71 -283.549 190.948C-267.922 175.639 -243.173 161.955 -211.977 151.38C-183.125 141.598 -150.533 135.172 -120.201 133.289C-69.9131 130.226 -16.066 133.175 39.8456 142.052C90.4232 150.083 140.674 162.579 189.194 179.194C277.889 209.638 353.884 252.794 408.973 304.002C411.989 306.806 414.983 309.682 417.874 312.55C441.12 335.62 460.656 360.921 477.602 389.9C480.578 394.98 483.52 400.21 486.364 405.269C499.559 428.737 513.206 453.003 536.523 473.792C537.838 474.964 539.193 476.129 540.552 477.256C606.173 531.44 717.706 524.672 793.275 502.414C883.436 475.856 952.429 427.288 1013.3 384.436C1016.03 382.517 1018.74 380.599 1021.47 378.683C1025.15 376.085 1028.83 373.489 1032.51 370.897C1067.55 346.254 1102.16 322.305 1140.2 300.237C1183.95 274.858 1226.09 255.672 1269.01 241.581C1295.72 232.841 1323.75 226.172 1352.34 221.76C1379.05 217.635 1407.14 215.346 1435.82 214.952C1486.41 214.259 1540.32 219.276 1600.62 230.288C1647.73 238.84 1703.29 250.055 1758.11 268.401C1814.61 287.359 1867.44 311.692 1918.52 335.222C1923.54 337.534 1928.55 339.839 1933.55 342.133C2051.47 396.702 2167.73 457.701 2279.07 523.433L2278.81 523.592Z" fill="#FFE492"/>
<path d="M2274.92 521.485C2162.95 454.083 2048.54 392.314 1934.85 337.9C1928.05 334.645 1921.09 331.289 1914.36 328.044C1866.16 304.809 1816.32 280.783 1762.19 262.831C1708.13 244.968 1652.13 235.587 1604.48 228.767C1477.65 210.44 1373.77 216.902 1277.58 249.103C1185.83 279.928 1113.95 326.283 1044.43 371.109L1036.8 376.031C1030.77 379.919 1024.54 383.937 1018.39 387.879C948.807 432.448 879.149 474.221 792.192 495.587C771.091 500.772 749.424 504.365 727.787 506.272C704.552 508.318 681.982 508.347 660.701 506.357C637.586 504.195 616.181 499.654 597.078 492.859C576.289 485.465 558.12 475.352 543.08 462.805C541.725 461.669 540.377 460.5 539.072 459.328C516.013 438.637 501.867 414.713 488.186 391.577C485.133 386.414 481.974 381.075 478.786 375.89C461.064 347.014 441.051 321.929 417.599 299.204C414.667 296.364 411.629 293.514 408.569 290.734C352.738 240.012 276.185 197.447 187.182 167.641C82.9995 132.855 -27.1083 117.329 -122.867 123.927C-187.845 128.5 -254.597 152.334 -285.191 181.89C-306.273 202.254 -310.678 224.948 -297.931 247.52L-298.28 247.593C-304.951 235.783 -307.012 223.971 -304.407 212.488C-302.005 201.901 -295.646 191.567 -285.507 181.774C-269.71 166.516 -245.05 152.846 -214.185 142.239C-185.619 132.421 -153.203 125.841 -122.911 123.708C-72.6825 120.247 -18.7803 122.798 37.3076 131.29C88.0102 138.968 138.492 151.131 187.354 167.446C276.409 197.268 353.006 239.859 408.87 290.611C411.93 293.393 414.972 296.246 417.904 299.085C441.37 321.822 461.395 346.92 479.124 375.812C482.312 380.997 485.472 386.338 488.524 391.501C502.197 414.624 516.337 438.537 539.37 459.203C540.67 460.37 542.019 461.537 543.371 462.673C607.412 516.103 713.82 514.603 792.049 495.381C878.936 474.033 948.565 432.276 1018.12 387.727C1024.27 383.785 1030.5 379.767 1036.53 375.879L1044.16 370.957C1078.29 348.954 1113.57 326.2 1151.89 305.033C1195.29 281.06 1236.34 262.701 1277.4 248.906C1303.83 240.056 1331.47 233.058 1359.53 228.108C1385.92 223.453 1413.57 220.452 1441.72 219.189C1492.08 216.928 1545.35 219.992 1604.56 228.548C1652.24 235.372 1708.26 244.756 1762.35 262.634C1816.52 280.593 1866.37 304.626 1914.58 327.868C1921.31 331.112 1928.27 334.466 1935.07 337.724C2048.78 392.142 2163.2 453.915 2275.17 521.324L2274.92 521.485Z" fill="#FFE492"/>
<path d="M2271.03 519.379C2160.02 451.228 2047.43 388.686 1936.38 333.494C1928.04 329.346 1919.48 325.033 1911.21 320.863C1865.61 297.878 1818.45 274.111 1766.44 257.072C1712.64 239.515 1656.39 232.037 1608.45 227.037C1485.14 213.977 1382.67 223.319 1285.97 256.432C1201.59 285.451 1132.31 326.578 1065.31 366.35C1058.26 370.535 1050.97 374.862 1043.86 379.054C1035.52 383.977 1029.15 387.718 1023.2 391.179C991.347 409.705 953.421 431.038 913.622 448.782C871.445 467.583 831.319 480.596 790.947 488.565C769.717 492.755 748.142 495.397 726.817 496.417C703.92 497.513 681.75 496.708 660.928 494.022C638.369 491.113 617.463 485.996 598.782 478.812C578.526 471.022 560.735 460.728 545.901 448.22C544.564 447.087 543.223 445.915 541.923 444.739C519.169 424.187 504.548 400.632 490.405 377.853C487.124 372.57 483.734 367.108 480.314 361.802C461.795 333.006 441.293 308.128 417.632 285.74C414.656 282.925 411.574 280.101 408.47 277.344C351.864 227.075 274.708 185.079 185.345 155.892C80.4388 121.746 -29.9776 106.991 -125.567 114.343C-179.958 118.618 -250.998 138.311 -287.094 172.667C-308.555 193.094 -313.705 215.891 -301.983 238.592L-302.332 238.659C-308.463 226.789 -310.065 214.925 -307.097 203.397C-304.356 192.757 -297.733 182.378 -287.403 172.547C-271.437 157.352 -246.868 143.704 -216.345 133.075C-188.066 123.228 -155.845 116.498 -125.611 114.121C-75.4416 110.262 -21.4806 112.415 34.7764 120.522C85.6001 127.847 136.317 139.679 185.517 155.695C274.932 184.898 352.132 226.919 408.771 277.217C411.875 279.974 414.961 282.802 417.937 285.619C441.609 308.018 462.122 332.91 480.652 361.719C484.075 367.027 487.466 372.489 490.747 377.773C504.879 400.541 519.496 424.082 542.224 444.612C543.525 445.786 544.862 446.955 546.199 448.086C599.477 493.014 690.93 508.066 790.833 488.348C881.305 470.492 955.107 430.472 1022.95 391.014C1028.89 387.552 1035.26 383.812 1043.61 378.888C1050.71 374.696 1058 370.37 1065.05 366.184C1098.04 346.605 1132.14 326.359 1168.52 307.401C1209.66 285.961 1248.02 269.223 1285.8 256.233C1311.98 247.267 1339.21 239.94 1366.74 234.458C1392.82 229.264 1420.04 225.555 1447.63 223.428C1497.87 219.56 1550.5 220.667 1608.52 226.811C1656.48 231.815 1712.77 239.296 1766.61 256.868C1818.66 273.919 1865.82 297.693 1911.44 320.684C1919.71 324.854 1928.27 329.167 1936.61 333.315C2047.67 388.514 2160.27 451.06 2271.29 519.216L2271.03 519.379Z" fill="#FFE492"/>
<path d="M2267.13 517.273C2157.09 448.368 2046.32 385.051 1937.91 329.085C1928.69 324.324 1919.21 319.327 1910.05 314.496C1866.41 291.48 1821.29 267.681 1770.69 251.308C1716.85 233.962 1660.47 228.428 1612.42 225.302C1494.7 217.439 1390.66 230.018 1294.37 263.757C1217.7 290.744 1151.97 326.847 1088.41 361.762C1075.57 368.814 1062.3 376.107 1049.4 383.059C1041.5 387.313 1034.51 391.049 1028 394.479C997.767 410.412 957.545 430.841 914.565 447.536C871.378 464.31 830.532 475.433 789.693 481.54C745.151 488.2 700.697 488.249 661.14 481.685C639.147 478.034 618.736 472.341 600.475 464.764C580.759 456.583 563.346 446.11 548.714 433.641C547.388 432.505 546.058 431.331 544.765 430.155C522.335 409.759 507.258 386.591 492.682 364.188C489.155 358.768 485.511 353.165 481.834 347.721C462.503 319.001 441.513 294.324 417.66 272.282C414.64 269.492 411.514 266.693 408.366 263.96C350.985 214.145 273.23 172.715 183.507 144.151C77.8774 110.647 -32.8475 96.6615 -128.272 104.767C-192.941 110.379 -257.512 133.945 -288.943 163.404C-310.815 183.905 -316.726 206.821 -306.036 229.673L-306.388 229.734C-311.976 217.792 -313.115 205.866 -309.775 194.289C-306.69 183.588 -299.783 173.155 -289.251 163.281C-273.117 148.158 -248.644 134.542 -218.476 123.903C-190.495 114.036 -158.476 107.159 -128.323 104.543C-78.2123 100.286 -24.1926 102.043 32.2371 109.764C83.1857 116.735 134.138 128.236 183.676 143.95C273.451 172.531 351.249 213.984 408.667 263.831C411.815 266.563 414.942 269.365 417.965 272.157C441.828 294.212 462.83 318.9 482.172 347.633C485.849 353.078 489.493 358.683 493.02 364.103C507.589 386.495 522.658 409.652 545.067 430.027C546.36 431.204 547.686 432.373 549.012 433.509C601.375 478.146 691.315 496.019 789.605 481.323C879.21 467.923 957.024 431.584 1027.76 394.312C1034.26 390.882 1041.26 387.148 1049.15 382.893C1062.05 375.942 1075.33 368.651 1088.16 361.599C1151.74 326.677 1217.47 290.565 1294.18 263.567C1320.13 254.474 1346.97 246.82 1373.94 240.815C1399.74 235.073 1426.52 230.653 1453.52 227.677C1503.75 222.143 1555.74 221.296 1612.46 225.083C1660.54 228.211 1716.97 233.747 1770.86 251.113C1821.49 267.498 1866.64 291.305 1910.29 314.33C1919.45 319.162 1928.92 324.157 1938.15 328.917C2046.57 384.887 2157.35 448.21 2267.39 517.119L2267.13 517.273Z" fill="#FFE492"/>
<path d="M2263.23 515.167C2154.17 445.502 2045.23 381.413 1939.44 324.678C1929.72 319.463 1919.72 313.943 1910.05 308.604C1868 285.393 1824.53 261.391 1774.95 245.546C1720.88 228.347 1664.46 224.786 1616.39 223.569C1503.11 220.493 1400.52 236.034 1302.76 271.084C1234.2 295.781 1173.09 327.039 1113.98 357.265C1093.66 367.66 1074.46 377.478 1054.93 387.063C1046.99 390.964 1039.76 394.47 1032.81 397.777C988.015 419.096 950.743 434.51 915.513 446.284C871.317 461.057 829.754 470.291 788.448 474.512C772.424 476.149 756.459 476.965 740.784 476.965C712.997 476.965 686.11 474.407 661.358 469.341C616.562 460.171 579.613 443.252 551.536 419.054C550.214 417.907 548.895 416.733 547.617 415.561C525.527 395.342 510.029 372.586 495.041 350.576C491.242 344.999 487.319 339.235 483.362 333.63C463.206 304.977 441.722 280.506 417.697 258.816C414.634 256.05 411.463 253.275 408.271 250.567C350.115 201.206 271.758 160.343 181.674 132.399C75.3211 99.5389 -35.7087 86.3204 -130.968 95.1789C-195.906 101.343 -258.613 124.462 -290.717 154.078C-313.034 174.664 -319.727 197.716 -310.08 220.743L-310.436 220.799C-315.473 208.774 -316.141 196.777 -312.42 185.139C-308.974 174.367 -301.778 163.876 -291.021 153.955C-274.718 138.915 -250.351 125.343 -220.551 114.705C-192.871 104.822 -161.076 97.8105 -131.023 94.9576C-80.9707 90.3025 -26.8922 91.6619 29.7064 98.9978C80.78 105.618 131.964 116.789 181.843 132.198C271.978 160.16 350.379 201.045 408.572 250.435C411.765 253.145 414.935 255.92 418.002 258.688C442.042 280.389 463.536 304.874 483.7 333.538C487.657 339.144 491.584 344.91 495.379 350.486C510.359 372.485 525.851 395.233 547.922 415.434C549.2 416.603 550.515 417.777 551.838 418.922C604.267 464.113 690.485 484.294 788.386 474.289C881.58 464.764 964.125 430.177 1032.59 397.598C1039.53 394.291 1046.76 390.788 1054.7 386.886C1074.22 377.301 1093.42 367.485 1113.74 357.091C1172.86 326.857 1233.99 295.596 1302.57 270.889C1328.33 261.655 1354.76 253.673 1381.15 247.162C1406.7 240.857 1433.04 235.726 1459.43 231.914C1509.76 224.645 1561.11 221.841 1616.41 223.343C1664.51 224.56 1720.99 228.126 1775.12 245.344C1824.74 261.201 1868.23 285.214 1910.29 308.434C1919.96 313.773 1929.96 319.294 1939.68 324.505C2045.48 381.245 2154.43 445.341 2263.49 515.01L2263.23 515.167Z" fill="#FFE492"/>
<path d="M2259.34 513.061C2149.74 441.638 2045.6 378.576 1940.97 320.269C1930.99 314.706 1921.16 309.024 1910.76 303.01C1870.08 279.497 1828.02 255.187 1779.2 239.784C1724.46 222.592 1665.56 221.161 1620.36 221.837C1512.24 223.241 1411.1 241.747 1311.16 278.413C1251.19 300.519 1195.83 327.066 1142.29 352.74C1114.15 366.234 1087.57 378.976 1060.46 391.07C1052.42 394.663 1044.94 397.936 1037.62 401.077C992.21 420.52 953.711 434.486 916.454 445.03C871.232 457.828 828.953 465.173 787.199 467.485C765.746 468.672 744.439 468.449 723.871 466.821C702.094 465.097 681.133 461.79 661.571 456.994C618.212 446.363 582.141 428.693 554.358 404.471C553.046 403.322 551.739 402.146 550.468 400.974C528.749 380.963 512.861 358.641 497.495 337.053C493.395 331.294 489.156 325.337 484.891 319.546C463.889 290.956 441.921 266.688 417.731 245.356C414.619 242.615 411.405 239.864 408.176 237.181C349.244 188.274 270.288 147.979 179.845 120.655C96.3672 95.539 10.2809 82.4346 -68.6603 82.4346C-90.9772 82.4346 -112.706 83.481 -133.664 85.5983C-197.819 92.2076 -260.134 115.409 -292.424 144.708C-315.215 165.39 -322.72 188.598 -314.128 211.822L-314.488 211.871C-318.973 199.753 -319.161 187.672 -315.046 175.968C-311.233 165.117 -303.724 154.557 -292.733 144.583C-276.261 129.636 -252.008 116.12 -222.59 105.493C-194.821 95.4608 -164.092 88.505 -133.73 85.3792C-83.7366 80.3262 -29.5993 81.2898 27.172 88.2389C78.3668 94.5038 129.789 105.341 180.007 120.451C270.502 147.791 349.505 188.108 408.473 237.045C411.706 239.728 414.924 242.48 418.036 245.224C442.237 266.567 464.216 290.847 485.229 319.45C489.494 325.241 493.737 331.197 497.836 336.959C513.195 358.538 529.076 380.852 550.776 400.847C552.047 402.016 553.355 403.192 554.663 404.339C606.618 449.631 691.36 472.563 787.17 467.259C884.119 461.891 971.829 428.97 1037.41 400.89C1044.74 397.748 1052.21 394.475 1060.26 390.884C1087.36 378.795 1113.93 366.05 1142.07 352.559C1195.62 326.882 1250.99 300.329 1310.97 278.216C1362.43 259.339 1412.92 245.582 1465.34 236.155C1515.9 227.064 1566.61 222.306 1620.36 221.609C1651.03 221.15 1676.05 221.946 1699.11 224.11C1728.87 226.905 1755.13 231.965 1779.38 239.58C1828.24 254.997 1870.32 279.321 1911.02 302.844C1921.42 308.859 1931.25 314.538 1941.23 320.101C2045.86 378.41 2150 441.477 2259.61 512.904L2259.34 513.061Z" fill="#FFE492"/>
<path d="M2255.44 510.955C2146.84 438.749 2044.48 374.935 1942.5 315.859C1932.41 310.015 1922.47 303.993 1911.93 297.619C1872.47 273.735 1831.67 249.036 1783.46 234.02C1728.26 216.909 1669.42 217.593 1624.33 220.099C1522.3 225.575 1422.6 247.046 1319.55 285.735C1268.77 304.89 1220.43 326.811 1173.68 348.011C1136.72 364.769 1101.81 380.599 1066 395.067C1057.91 398.34 1049.97 401.471 1042.42 404.368C996.927 421.817 956.029 434.702 917.394 443.762C871.133 454.611 828.138 460.071 785.95 460.451C764.486 460.643 743.264 459.462 722.886 456.938C701.525 454.291 680.967 450.152 661.784 444.634C619.913 432.59 584.716 414.168 557.176 389.88C555.883 388.733 554.582 387.555 553.315 386.376C532.004 366.609 515.771 344.758 500.07 323.627C495.629 317.648 491.033 311.464 486.415 305.451C464.554 276.915 442.098 252.852 417.764 231.884C414.608 229.168 411.35 226.442 408.077 223.784C348.37 175.33 268.812 135.603 178.009 108.898C70.2116 77.3277 -41.439 65.6475 -136.368 76.0085C-199.692 83.0404 -261.592 106.302 -294.063 135.268C-317.368 156.059 -325.707 179.442 -318.183 202.892L-318.543 202.934C-322.467 190.711 -322.165 178.537 -317.643 166.751C-313.444 155.811 -305.616 145.175 -294.368 135.141C-277.734 120.301 -253.602 106.852 -224.581 96.2476C-197.132 86.2175 -166.652 79.1432 -136.434 75.7872C-86.4953 70.3384 -32.3029 70.9018 24.6374 77.4663C75.9571 83.3824 127.611 93.8888 178.167 108.695C269.025 135.413 348.627 175.165 408.367 223.647C411.644 226.306 414.906 229.034 418.061 231.753C442.41 252.732 464.874 276.805 486.746 305.353C491.367 311.365 495.959 317.55 500.404 323.531C516.098 344.653 532.324 366.495 553.62 386.249C554.887 387.425 556.187 388.603 557.477 389.748C609.979 436.048 691.117 461.081 785.943 460.223C862.886 459.53 944.321 441.719 1042.23 404.174C1049.77 401.276 1057.7 398.148 1065.8 394.875C1101.59 380.409 1136.5 364.583 1173.45 347.825C1220.21 326.623 1268.56 304.698 1319.36 285.539C1371.31 266.031 1421 251.265 1471.24 240.392C1522.14 229.378 1572.21 222.664 1624.3 219.869C1669.44 217.358 1728.34 216.676 1783.62 233.814C1831.89 248.848 1872.72 273.559 1912.2 297.454C1922.72 303.828 1932.67 309.847 1942.76 315.689C2044.74 374.768 2147.11 438.586 2255.71 510.796L2255.44 510.955Z" fill="#FFE492"/>
<path d="M2251.55 508.848C2143.96 435.858 2043.38 371.289 1944.04 311.452C1933.95 305.377 1923.99 299.066 1913.45 292.383C1875.11 268.072 1835.46 242.934 1787.72 228.258C1732 211.209 1673.26 214.015 1628.31 218.364C1532.31 227.475 1436.87 251.211 1327.95 293.062C1287.1 308.83 1247.18 326.126 1208.57 342.853C1161.68 363.168 1117.39 382.358 1071.54 399.072C1063.27 402.085 1055.1 404.979 1047.23 407.666C1000.92 423.483 958.757 434.877 918.337 442.497C895.697 446.765 873.347 449.857 851.908 451.688C829.04 453.64 806.429 454.224 784.704 453.423C740.625 451.798 699.341 444.683 662.003 432.279C621.678 418.881 587.36 399.711 560.003 375.295C558.717 374.139 557.428 372.959 556.168 371.787C535.313 352.311 518.789 330.978 502.813 310.35C497.975 304.105 492.975 297.648 487.946 291.365C465.203 262.876 442.258 239.017 417.799 218.422C414.599 215.728 411.293 213.027 407.98 210.395C347.498 162.394 267.341 123.235 176.178 97.1531C67.6607 66.2288 -44.2949 55.3178 -139.066 66.4278C-240.54 78.5082 -339.422 130.705 -322.229 193.969L-322.593 194.004C-326.895 178.179 -324.375 162.588 -315.106 147.661C-306.642 134.029 -292.753 121.2 -273.823 109.533C-256.223 98.6847 -235.107 89.3186 -211.067 81.6943C-188.203 74.4434 -163.329 69.0863 -139.139 66.2065C-89.2593 60.3597 -35.0081 60.5273 22.1048 66.7073C73.5494 72.2724 125.439 82.4478 176.332 96.9519C267.547 123.051 347.752 162.233 408.27 210.261C411.587 212.895 414.893 215.596 418.097 218.293C442.566 238.896 465.522 262.768 488.276 291.269C493.306 297.552 498.305 304.009 503.143 310.256C519.116 330.878 535.632 352.201 556.476 371.666C557.733 372.838 559.018 374.019 560.304 375.172C612.884 422.094 692.585 449.803 784.726 453.202C862.73 456.075 948.537 441.119 1047.05 407.474C1054.91 404.786 1063.09 401.895 1071.35 398.882C1117.19 382.173 1161.48 362.985 1208.36 342.672C1246.97 325.943 1286.89 308.644 1327.75 292.874C1436.71 251.006 1532.2 227.261 1628.25 218.143C1658.45 215.22 1683.46 214.286 1706.95 215.205C1736.98 216.379 1763.45 220.582 1787.88 228.057C1835.67 242.748 1875.35 267.902 1913.72 292.226C1924.25 298.907 1934.21 305.219 1944.29 311.291C2043.64 371.132 2144.23 435.704 2251.82 508.698L2251.55 508.848Z" fill="#FFE492"/>
<path d="M2247.65 506.742C2141.09 432.956 2042.28 367.635 1945.57 307.043C1935.56 300.774 1925.67 294.207 1915.2 287.251C1877.9 262.475 1839.32 236.855 1791.97 222.494C1735.04 205.302 1673.57 210.912 1632.28 216.627C1520.22 231.947 1419.8 267.564 1336.35 300.389C1306.35 312.235 1276.43 324.782 1247.5 336.917C1189.45 361.258 1134.63 384.25 1077.08 403.076C1068.61 405.846 1060.19 408.5 1052.04 410.966C1004.83 425.229 961.403 435.129 919.29 441.229C871.548 448.144 825.853 449.884 783.463 446.396C739.917 442.812 699.126 433.904 662.228 419.919C623.527 405.251 590.087 385.332 562.829 360.713C561.558 359.557 560.276 358.374 559.023 357.198C538.686 338.079 521.957 317.333 505.775 297.268C500.474 290.692 494.989 283.895 489.479 277.279C465.509 248.432 442.744 225.454 417.841 204.96C414.597 202.29 411.25 199.616 407.889 197.007C346.625 149.461 265.865 110.87 174.342 85.4058C65.1051 55.1299 -47.1591 44.9857 -141.768 56.8448C-243.607 69.7793 -340.467 121.267 -326.28 185.045L-326.644 185.074C-330.163 169.251 -327.118 153.676 -317.596 138.783C-308.867 125.137 -294.897 112.294 -276.066 100.614C-258.507 89.721 -237.501 80.2856 -213.63 72.5652C-190.902 65.2136 -166.076 59.7022 -141.842 56.6234C-92.017 50.3786 -37.7107 50.1506 19.5712 55.9437C71.1407 61.1578 123.265 71.0023 174.496 85.2023C266.075 110.68 346.878 149.294 408.172 196.868C411.533 199.48 414.883 202.156 418.131 204.826C443.049 225.329 465.821 248.32 489.802 277.179C495.312 283.794 500.797 290.594 506.098 297.169C522.277 317.227 539.002 337.967 559.324 357.077C560.577 358.253 561.856 359.434 563.127 360.59C616.114 408.446 694.379 438.841 783.507 446.175C863.444 452.752 951.228 441.168 1051.88 410.765C1060.02 408.301 1068.44 405.649 1076.9 402.879C1134.44 384.058 1189.25 361.071 1247.29 336.731C1276.22 324.597 1306.15 312.047 1336.14 300.199C1392.26 278.129 1438.94 261.823 1483.05 248.884C1534.97 233.653 1583.76 223.03 1632.2 216.408C1661.72 212.32 1687.46 210.469 1710.88 210.751C1741.03 211.113 1767.61 214.887 1792.13 222.292C1839.55 236.671 1878.15 262.308 1915.47 287.099C1925.94 294.053 1935.83 300.619 1945.83 306.884C2042.54 367.479 2141.36 432.804 2247.93 506.592L2247.65 506.742Z" fill="#FFE492"/>
<path d="M2243.76 504.634C2138.23 430.049 2041.19 363.975 1947.1 302.632C1937.23 296.199 1927.47 289.404 1917.13 282.209C1880.81 256.935 1843.26 230.8 1796.23 216.73C1738.67 199.578 1677.37 207.464 1636.26 214.889C1534.73 233.069 1444.16 267.685 1344.74 307.714C1326.81 314.96 1308.68 322.439 1291.14 329.675C1223.67 357.498 1153.92 386.267 1082.61 407.078C1073.95 409.609 1065.28 412.026 1056.85 414.262C1009.31 426.854 963.35 435.498 920.234 439.954C871.39 445.003 824.956 444.804 782.21 439.366C739.274 433.904 698.978 423.201 662.441 407.554C625.467 391.72 592.897 371.054 565.639 346.131C564.379 344.972 563.108 343.787 561.863 342.611C542.139 323.94 525.303 303.868 509.022 284.459C503.155 277.465 497.09 270.234 490.996 263.198C466.089 234.38 442.85 211.598 417.863 191.502C414.582 188.864 411.188 186.212 407.779 183.623C345.751 136.524 264.396 98.5013 172.505 73.6585C62.5518 44.031 -50.0173 34.656 -144.472 47.2618C-243.078 60.5653 -341.728 110.246 -330.336 176.119L-330.7 176.142C-333.436 160.319 -329.866 144.761 -320.09 129.902C-311.101 116.241 -297.046 103.387 -278.318 91.693C-243.765 70.1214 -195.009 53.8465 -144.553 47.0405C-94.787 40.3999 -40.4219 39.7739 17.0326 45.1802C68.727 50.0455 121.083 59.5569 172.652 73.4528C264.594 98.309 345.997 136.357 408.065 183.478C411.478 186.069 414.872 188.721 418.156 191.361C443.155 211.469 466.405 234.259 491.319 263.088C497.414 270.127 503.482 277.357 509.349 284.351C525.627 303.756 542.459 323.823 562.171 342.486C563.413 343.662 564.684 344.845 565.944 346.003C620.478 395.867 695.287 428.075 782.28 439.145C862.834 449.394 955.158 440.954 1056.7 414.056C1065.12 411.82 1073.78 409.406 1082.44 406.877C1153.73 386.072 1223.47 357.308 1290.92 329.489C1308.46 322.254 1326.6 314.775 1344.53 307.528C1388.05 290.006 1438.69 269.908 1488.95 253.127C1541.52 235.576 1589.67 222.999 1636.14 214.677C1665.4 209.394 1691.13 206.652 1714.8 206.299C1744.66 205.852 1772.1 209.295 1796.38 216.531C1817.45 222.833 1838.65 232.24 1861.2 245.288C1881.12 256.81 1899.56 269.648 1917.4 282.062C1927.73 289.254 1937.5 296.049 1947.36 302.48C2041.45 363.825 2138.49 429.902 2244.03 504.488L2243.76 504.634Z" fill="#FFE492"/>
<path d="M2239.86 502.527C2135.36 427.138 2040.1 360.31 1948.63 298.224C1938.94 291.651 1929.35 284.651 1919.19 277.241C1883.82 251.441 1847.24 224.763 1800.48 210.97C1756.78 198.12 1704.36 198.836 1640.22 213.156C1550.54 233.067 1470.38 266.37 1385.5 301.632C1374.94 306.023 1364.01 310.562 1353.14 315.045C1348.88 316.805 1344.62 318.569 1340.36 320.331C1259.49 353.799 1175.87 388.408 1088.15 411.084C1079.28 413.378 1070.37 415.558 1061.66 417.562C1013.08 428.726 965.819 435.831 921.192 438.68C871.221 441.868 824.041 439.735 780.972 432.339C738.704 425.079 698.905 412.58 662.68 395.19C627.568 378.333 595.872 356.923 568.471 331.548C567.222 330.387 565.962 329.2 564.724 328.022C545.75 309.936 528.969 290.674 512.736 272.047C506.164 264.503 499.364 256.702 492.535 249.109C466.666 220.311 442.956 197.727 417.91 178.038C414.582 175.422 411.147 172.797 407.694 170.232C344.88 123.59 262.922 86.1321 170.672 61.9109C60.0057 32.9341 -52.8756 24.326 -147.172 37.6786C-243.967 51.4985 -342.477 101.586 -334.385 167.196L-334.752 167.214C-336.703 151.388 -332.61 135.849 -322.581 121.027C-313.328 107.351 -299.192 94.4808 -280.563 82.7783C-246.157 61.1619 -197.57 44.6455 -147.257 37.4617C-97.5462 30.4232 -43.126 29.3992 14.4976 34.4209C66.3169 38.9329 118.911 48.1134 170.819 61.7052C263.121 85.9421 345.129 123.42 407.969 170.087C411.423 172.651 414.865 175.281 418.193 177.897C443.25 197.597 466.974 220.188 492.851 248.997C499.684 256.59 506.48 264.394 513.055 271.937C529.282 290.56 546.062 309.817 565.029 327.897C566.267 329.075 567.523 330.26 568.772 331.42C624.489 383.015 697.898 417.835 781.068 432.117C863.168 446.217 957.527 441.246 1061.53 417.347C1070.23 415.344 1079.14 413.166 1088 410.874C1175.69 388.207 1259.3 353.605 1340.15 320.14C1344.41 318.376 1348.67 316.615 1352.93 314.855C1363.8 310.372 1374.73 305.833 1385.3 301.444C1470.19 266.176 1550.37 232.863 1640.09 212.944C1669.07 206.473 1694.8 202.845 1718.74 201.845C1748.7 200.595 1776.26 203.598 1800.64 210.766C1821.58 216.944 1842.52 226.393 1864.66 239.654C1884.18 251.354 1902.12 264.44 1919.47 277.096C1929.63 284.503 1939.22 291.501 1948.9 298.072C2040.38 360.16 2135.65 426.99 2240.15 502.382L2239.86 502.527Z" fill="#FFE492"/>
<path d="M2235.97 500.421C2140.59 430.17 2044.43 360.657 1950.16 293.816C1940.56 287.05 1931.05 279.781 1920.98 272.088C1888.23 247.059 1851.11 218.693 1804.74 205.208C1760.53 192.381 1708.02 194.413 1644.19 211.419C1568.3 231.574 1501.15 261.208 1430.04 292.582C1407.78 302.406 1384.75 312.568 1361.53 322.37C1320.99 339.517 1277.14 357.661 1231.17 374.186C1181.94 391.885 1136.97 405.263 1093.67 415.087C1084.58 417.151 1075.42 419.094 1066.46 420.858C1016.85 430.613 968.302 436.165 922.166 437.359C871.092 438.678 823.167 434.626 779.716 425.307C699.478 407.885 629.35 371.434 571.282 316.964C570.044 315.801 568.795 314.612 567.564 313.433C549.553 296.146 533.066 277.908 517.122 260.269C509.617 251.967 501.859 243.381 494.052 235.026C467.199 206.234 443.012 183.849 417.936 164.578C414.56 161.984 411.081 159.384 407.588 156.846C344.009 110.653 261.45 73.7658 168.839 50.164C57.4565 21.8355 -55.7297 13.9988 -149.872 28.096C-247.255 42.761 -343.296 92.185 -338.436 158.273L-338.804 158.282C-339.968 142.452 -335.347 126.93 -325.072 112.147C-315.55 98.4521 -301.333 85.569 -282.811 73.8575C-265.362 62.8235 -244.68 53.1757 -221.341 45.1803C-198.683 37.4195 -174.669 31.5973 -149.964 27.8769C-100.308 20.4426 -45.8294 19.0206 11.9631 23.6555C63.9073 27.821 116.733 36.6683 168.979 49.9561C261.644 73.5713 344.252 110.481 407.867 156.697C411.36 159.236 414.847 161.839 418.223 164.433C443.309 183.715 467.507 206.109 494.372 234.909C502.178 243.267 509.937 251.853 517.442 260.157C533.385 277.793 549.868 296.029 567.873 313.31C569.1 314.491 570.352 315.678 571.587 316.841C629.611 371.268 699.676 407.691 779.837 425.095C862.408 442.803 961.48 441.265 1066.34 420.643C1075.3 418.879 1084.46 416.938 1093.55 414.877C1190.34 392.914 1278.9 357.044 1361.31 322.184C1384.54 312.382 1407.56 302.223 1429.83 292.398C1500.94 261.018 1568.11 231.377 1644.04 211.214C1707.96 194.181 1760.58 192.148 1804.89 205.005C1825.66 211.044 1846.28 220.51 1867.94 233.941C1887.04 245.785 1904.44 259.086 1921.27 271.947C1931.34 279.64 1940.85 286.907 1950.44 293.668C2044.72 360.512 2140.87 430.025 2236.25 500.278L2235.97 500.421Z" fill="#FFE492"/>
<path d="M2232.07 498.315C2138.16 427.675 2043.82 357.388 1951.69 289.407C1942.4 282.567 1933.17 275.171 1923.4 267.341C1891.46 241.729 1855.25 212.699 1808.99 199.442C1764.25 186.637 1711.64 189.987 1648.16 209.678C1581.64 230.279 1520.53 259.368 1461.43 287.502C1431.79 301.608 1401.15 316.195 1369.92 329.693C1320.64 351.018 1279.17 367.287 1239.42 380.892C1190.4 397.668 1144.54 410.162 1099.21 419.087C1089.9 420.921 1080.5 422.624 1071.26 424.151C1023.12 432.104 975.851 436.129 930.629 436.131C928.116 436.131 925.618 436.118 923.12 436.093C870.838 435.574 822.171 429.578 778.47 418.273C757.376 412.787 736.72 405.822 717.077 397.571C698.614 389.817 680.47 380.684 663.15 370.426C631.987 351.971 602.855 329.711 574.099 302.377C572.864 301.201 571.634 300.023 570.41 298.84C553.725 282.713 537.94 265.854 522.676 249.55C513.863 240.139 504.753 230.407 495.576 220.933C467.323 191.746 443.39 170.21 417.965 151.109C414.545 148.54 411.022 145.965 407.484 143.451C343.134 97.7167 259.976 61.3972 167.005 38.4147C54.9101 10.7369 -58.5847 3.66932 -152.573 18.511C-248.13 33.6434 -344.046 83.4429 -342.485 149.345L-342.852 149.347C-343.58 118.651 -323.592 89.4619 -285.053 64.9366C-267.633 53.8512 -247.061 44.1341 -223.902 36.0492C-201.369 28.1834 -177.402 22.2091 -152.665 18.2919C-103.068 10.4597 -48.5301 8.64189 9.4314 12.89C61.5005 16.7067 114.561 25.2231 167.141 38.2046C260.171 61.2027 343.377 97.5445 407.767 143.306C411.305 145.821 414.835 148.399 418.255 150.968C443.691 170.081 467.635 191.623 495.896 220.821C505.072 230.297 514.187 240.03 522.996 249.441C538.259 265.742 554.041 282.599 570.723 298.721C571.946 299.904 573.173 301.082 574.407 302.256C635.513 360.34 702.31 398.222 778.613 418.068C884.298 445.408 996.037 436.35 1071.17 423.937C1080.4 422.41 1089.79 420.708 1099.1 418.875C1203.35 398.345 1298.48 360.333 1369.71 329.512C1400.93 316.018 1431.57 301.431 1461.2 287.327C1520.32 259.189 1581.44 230.091 1647.99 209.481C1676.4 200.67 1702.11 195.259 1726.59 192.942C1756.78 190.085 1784.56 192.205 1809.14 199.243C1829.86 205.179 1850.28 214.722 1871.59 228.414C1890.36 240.479 1907.31 254.067 1923.7 267.209C1933.46 275.037 1942.68 282.431 1951.98 289.266C2044.1 357.248 2138.44 427.534 2232.36 498.174L2232.07 498.315Z" fill="#FFE492"/>
<path d="M2228.18 496.209L1953.22 285C1944.25 278.102 1935.33 270.596 1925.89 262.652C1894.73 236.434 1859.42 206.72 1813.25 193.682C1768.6 181.076 1714.39 185.875 1652.13 207.945C1592.27 229.161 1537.68 257.375 1484.88 284.662C1450.47 302.448 1414.88 320.838 1378.32 337.024C1268.42 385.672 1172.38 414.405 1076.07 427.451C1036.12 432.862 996.705 435.585 958.482 435.585C946.896 435.585 935.427 435.335 924.079 434.834C870.563 432.473 821.153 424.536 777.228 411.246C736.518 398.926 699.275 381.536 663.385 358.077C634.724 339.345 607.249 317.013 576.924 287.797C560.918 272.378 545.419 256.358 530.431 240.866C496.509 205.807 461.434 169.555 418.009 137.649C351.4 88.7126 263.969 50.3362 165.169 26.6672C52.3643 -0.35772 -61.439 -6.6584 -155.273 8.92785C-246.12 24.0177 -344.722 71.6015 -346.537 140.422L-346.904 140.417C-346.092 109.656 -325.48 80.4712 -287.297 56.0175C-252.773 33.907 -205.92 17.1067 -155.368 8.71097C-105.827 0.482968 -51.2301 -1.73278 6.89667 2.12857C59.0907 5.59417 112.387 13.7819 165.304 26.4593C214.192 38.1708 260.622 53.5871 303.309 72.2812C346.352 91.1319 385.039 113.075 418.288 137.502C461.732 169.419 496.818 205.68 530.747 240.747C545.735 256.237 561.234 272.255 577.236 287.672C621.48 330.301 684.217 382.846 777.394 411.04C884.25 443.373 998.752 437.689 1075.99 427.228C1172.25 414.19 1268.25 385.468 1378.1 336.838C1414.65 320.66 1450.23 302.27 1484.64 284.488C1537.45 257.197 1592.06 228.975 1651.94 207.748C1714.31 185.64 1768.64 180.837 1813.4 193.477C1834.07 199.314 1854.31 208.94 1875.27 222.907C1893.72 235.202 1910.23 249.089 1926.18 262.518C1935.62 270.462 1944.54 277.963 1953.51 284.859L2228.47 496.068L2228.18 496.209Z" fill="#FFE492"/>
<path d="M2225.96 479.972C2155.95 421.164 2095.88 373.444 2036.92 329.797C2008.3 308.594 1979.06 287.725 1950.04 267.767C1941.26 261.731 1932.56 255.309 1923.35 248.51C1900.2 231.421 1876.27 213.751 1848.73 200.638C1833.94 193.584 1819.71 188.533 1805.21 185.197C1760.72 174.856 1708.51 181.693 1650.04 205.521C1619.78 217.834 1592.23 231.846 1569.27 243.929C1544.96 256.72 1520.99 270.826 1497.79 284.467C1464.46 304.076 1430 324.351 1392.95 341.764C1370.4 352.391 1347.55 361.886 1325.02 369.989C1279.94 386.199 1231.56 399.556 1181.22 409.689C1150.12 415.88 1118.86 420.56 1088.33 423.596C1062.02 426.203 1035.66 427.708 1009.97 428.068C971.538 428.609 934.09 426.546 898.669 421.928C861.008 417.018 825.367 409.182 792.738 398.633C763.644 389.227 736.162 377.383 708.724 362.423C657.595 334.569 616.815 302.361 587.001 277.413C572.354 265.1 558.053 252.543 544.222 240.4C504.397 205.429 466.779 172.399 419.706 142.977C381.314 119.138 337.51 98.5658 289.501 81.8281C252.607 68.9652 212.481 58.4454 170.238 50.5595C160.176 48.6836 149.924 46.9351 139.773 45.3678C96.0728 38.6311 46.8764 34.2443 -6.4454 32.3282C-60.2043 30.3517 -106.715 32.0621 -148.627 37.5624C-172.322 40.6479 -195.278 45.4885 -216.867 51.948C-293.086 74.7538 -342.029 113.039 -347.789 154.362L-348.249 154.337C-346.713 143.321 -342.205 132.471 -334.855 122.083C-327.871 112.216 -318.28 102.7 -306.348 93.799C-283.803 76.9852 -252.931 62.4252 -217.069 51.6953C-195.447 45.2247 -172.454 40.3773 -148.723 37.2874C-106.767 31.7826 -60.2191 30.07 -6.41605 32.0487C46.9352 33.9649 96.1572 38.3561 139.887 45.0973C150.048 46.6668 160.305 48.4153 170.374 50.2934C212.65 58.1838 252.809 68.7125 289.732 81.5866C337.775 98.3355 381.615 118.926 420.026 142.78C467.128 172.22 504.753 205.259 544.593 240.239C558.42 252.382 572.721 264.937 587.364 277.248C617.164 302.184 657.926 334.376 709.025 362.213C736.434 377.157 763.886 388.99 792.948 398.385C856.805 419.029 929.818 428.922 1009.96 427.789C1035.62 427.429 1061.96 425.924 1088.25 423.319C1118.76 420.283 1150 415.608 1181.07 409.421C1231.39 399.295 1279.74 385.947 1324.78 369.745C1347.3 361.649 1370.14 352.158 1392.66 341.54C1429.69 324.136 1464.15 303.866 1497.47 284.264C1520.67 270.62 1544.65 256.51 1568.97 243.714C1591.94 231.625 1619.5 217.608 1649.78 205.286C1675.82 194.677 1701.02 187.348 1724.7 183.5C1753.79 178.773 1780.94 179.256 1805.38 184.935C1819.91 188.282 1834.19 193.347 1849.01 200.416C1876.59 213.55 1900.54 231.231 1923.7 248.331C1932.91 255.128 1941.61 261.55 1950.38 267.582C1979.42 287.542 2008.65 308.413 2037.28 329.621C2096.24 373.271 2156.32 420.996 2226.34 479.808L2225.96 479.972Z" fill="#FFE492"/>
<path d="M2223.75 463.731C2158.84 403.928 2097.91 353.885 2037.49 310.744C2008.02 289.67 1977.53 269.413 1946.85 250.536C1938.71 245.528 1930.68 240.323 1922.17 234.813C1896.69 218.315 1870.34 201.255 1840.83 189.452C1825.93 183.467 1811.66 179.299 1797.18 176.71C1741.75 166.792 1685.44 185.582 1647.96 203.091C1621.4 215.46 1597.15 229.445 1572.58 243.882C1551.08 256.519 1530.85 270.113 1509.43 284.503C1477.65 305.865 1444.77 327.953 1407.58 346.5C1385.5 357.565 1362.46 367.132 1339.1 374.935C1295.59 389.473 1247.94 400.762 1193.43 409.451C1162.93 414.311 1131.69 417.775 1100.58 419.74C1074.33 421.379 1048.13 421.965 1022.7 421.475C984.874 420.755 947.896 417.518 912.791 411.854C875.923 405.904 840.745 397.211 808.238 386.016C779.757 376.21 752.256 364.042 724.165 348.82C673.146 321.214 629.442 290.61 597.07 267.03C585.087 258.301 573.295 249.519 561.888 241.022C516.465 207.189 473.561 175.23 421.404 148.305C382.424 128.183 338.661 111.168 291.338 97.7345C255.532 87.5702 217.58 79.9548 175.319 74.4523C165.566 73.1846 155.644 72.0421 145.832 71.0561C102.733 66.7475 56.7366 65.1176 1.08575 63.4317C-39.0296 62.1551 -91.5432 61.3144 -141.992 66.193C-165.885 68.4602 -188.981 72.3976 -210.644 77.8911C-286.914 97.2381 -338.653 131.036 -349.049 168.303L-349.593 168.247C-346.838 158.365 -341.254 148.672 -333.007 139.436C-325.145 130.635 -314.815 122.197 -302.307 114.349C-278.535 99.4404 -246.913 86.725 -210.857 77.5803C-189.154 72.0756 -166.014 68.1315 -142.08 65.8599C-91.5836 60.9745 -39.0296 61.8174 1.11145 63.0941C56.7806 64.78 102.792 66.4099 145.92 70.7207C155.739 71.7089 165.669 72.8515 175.433 74.1192C217.734 79.6284 255.723 87.2505 291.569 97.4259C338.94 110.872 382.74 127.901 421.76 148.044C473.954 174.988 516.876 206.957 562.315 240.803C573.717 249.297 585.51 258.08 597.493 266.806C629.857 290.377 673.543 320.97 724.532 348.563C752.591 363.769 780.062 375.924 808.51 385.719C872.43 407.731 944.505 419.646 1022.72 421.135C1048.13 421.623 1074.3 421.039 1100.53 419.4C1131.6 417.437 1162.82 413.978 1193.29 409.12C1247.76 400.44 1295.37 389.16 1338.84 374.636C1362.17 366.842 1385.18 357.288 1407.23 346.234C1444.4 327.703 1477.25 305.623 1509.03 284.273C1530.45 269.876 1550.69 256.28 1572.2 243.636C1596.78 229.19 1621.04 215.2 1647.63 202.818C1671.92 191.467 1695.89 183.301 1718.86 178.543C1746.71 172.775 1773.12 172.048 1797.34 176.381C1811.87 178.982 1826.2 183.163 1841.14 189.166C1870.7 200.991 1897.07 218.067 1922.57 234.579C1931.08 240.086 1939.12 245.288 1947.25 250.295C1977.94 269.179 2008.44 289.442 2037.92 310.522C2098.35 353.674 2159.29 403.727 2224.21 463.543L2223.75 463.731Z" fill="#FFE492"/>
<path d="M2221.53 447.49C2160.78 385.88 2100.77 334.918 2038.06 291.692C2007.74 270.749 1975.99 251.106 1943.67 233.307C1936.76 229.501 1929.65 225.463 1922.77 221.559C1894.37 205.43 1865 188.752 1832.94 178.268C1817.89 173.314 1803.57 170.027 1789.16 168.223C1733.84 161.294 1680.71 182.038 1645.87 200.658C1622.26 213.229 1600.68 227.475 1579.81 241.255L1575.9 243.835C1556.95 256.336 1539.17 270.046 1520.35 284.564C1490.37 307.681 1459.38 331.582 1422.2 351.235C1400.57 362.755 1377.35 372.393 1353.19 379.884C1311.05 392.943 1264.16 402.262 1205.63 409.211C1175.37 412.805 1144.14 415.049 1112.82 415.881C1086.64 416.55 1060.6 416.214 1035.42 414.879C959.196 410.857 887.973 396.901 823.729 373.4C795.957 363.24 768.438 350.752 739.605 335.218C690.809 308.984 647.409 282.02 607.143 256.649C601.743 253.248 596.402 249.87 591.101 246.518C536.104 211.753 484.16 178.915 423.112 153.64C383.258 137.14 339.539 123.684 293.175 113.645C259.135 106.276 222.246 101.272 180.404 98.3473C170.974 97.6922 161.382 97.1533 151.893 96.7464C128.022 95.7403 102.704 95.577 75.8981 95.4049C54.3673 95.2663 32.1055 95.1232 8.6131 94.5396C-36.7591 93.3166 -88.1816 91.9326 -135.365 94.8303C-159.71 96.3261 -182.945 99.3579 -204.428 103.843C-280.669 119.762 -335.207 149.077 -350.316 182.259L-350.937 182.154C-346.955 173.405 -340.298 164.871 -331.155 156.788C-322.412 149.059 -311.347 141.694 -298.269 134.899C-273.256 121.904 -240.877 111.038 -204.641 103.472C-183.11 98.9756 -159.827 95.937 -135.435 94.439C-88.2037 91.5391 -36.7554 92.9253 8.63513 94.1483C32.1129 94.7296 54.3747 94.875 75.8981 95.0136C102.715 95.1858 128.041 95.349 151.934 96.3574C161.43 96.7665 171.032 97.3054 180.47 97.9605C222.363 100.887 259.297 105.898 293.384 113.278C339.803 123.329 383.57 136.8 423.469 153.318C484.571 178.615 536.541 211.469 591.56 246.25C596.861 249.602 602.206 252.978 607.602 256.381C647.861 281.747 691.246 308.705 740.027 334.929C768.832 350.446 796.321 362.922 824.06 373.069C888.219 396.541 959.35 410.477 1035.48 414.495C1060.63 415.827 1086.64 416.163 1112.79 415.494C1144.08 414.663 1175.27 412.42 1205.51 408.831C1263.98 401.889 1310.81 392.581 1352.89 379.539C1377 372.065 1400.18 362.444 1421.78 350.945C1458.91 331.316 1489.88 307.428 1519.84 284.325C1538.67 269.8 1556.45 256.083 1575.42 243.574L1579.33 240.994C1600.21 227.207 1621.81 212.951 1645.44 200.368C1680.39 181.687 1733.71 160.882 1789.28 167.843C1803.76 169.656 1818.14 172.954 1833.24 177.929C1865.38 188.435 1894.78 205.13 1923.21 221.278C1930.08 225.181 1937.19 229.219 1944.09 233.023C1976.43 250.831 2008.2 270.485 2038.54 291.439C2101.27 334.683 2161.3 385.663 2222.07 447.293L2221.53 447.49Z" fill="#FFE492"/>
<path d="M2219.31 431.246C2163.53 368.706 2102.75 315.343 2038.64 272.642C2007.47 251.831 1974.45 232.801 1940.49 216.081C1935.59 213.667 1930.57 211.16 1925.71 208.737C1893.61 192.725 1860.42 176.167 1825.07 167.089C1809.89 163.152 1795.53 160.748 1781.15 159.737C1725.99 155.865 1676.01 178.53 1643.8 198.226C1623.79 210.393 1605.74 223.925 1588.28 237.011C1585.26 239.276 1582.24 241.537 1579.22 243.788C1562.61 256.157 1547.08 269.975 1530.64 284.602C1502.69 309.469 1473.79 335.182 1436.84 355.975C1415.13 368.185 1392.38 377.625 1367.27 384.838C1314.74 399.924 1262.25 405.506 1217.83 408.981C1187.79 411.329 1156.58 412.357 1125.06 412.031C1098.96 411.729 1073.08 410.47 1048.14 408.292C974.205 401.851 903.916 385.869 839.228 360.789C812.312 350.357 784.778 337.545 755.048 321.623C725.017 305.579 697.031 290.14 669.964 275.209C651.571 265.06 634.195 255.475 617.227 246.279C553.086 211.516 494.335 180.951 424.835 158.982C384.124 146.114 340.449 136.214 295.022 129.558C262.463 124.786 227.66 122.463 185.498 122.242C176.403 122.202 167.138 122.266 157.965 122.436C144.031 122.711 129.616 123.286 114.36 123.896C85.0816 125.066 51.8909 126.392 16.1398 125.649C2.52557 125.365 -11.3642 124.965 -24.7984 124.576C-59.352 123.577 -95.0811 122.544 -128.742 123.467C-153.461 124.147 -176.84 126.275 -198.22 129.795C-274.333 142.327 -331.666 167.161 -351.591 196.225L-352.271 196.052C-347.055 188.442 -339.325 181.068 -329.3 174.134C-319.672 167.476 -307.872 161.186 -294.236 155.442C-267.959 144.375 -234.827 135.358 -198.418 129.363C-176.987 125.835 -153.557 123.7 -128.782 123.02C-95.0847 122.094 -59.3409 123.13 -24.769 124.129C-11.3385 124.518 2.55127 124.918 16.1618 125.202C51.8799 125.945 85.0448 124.621 114.308 123.452C129.572 122.841 143.991 122.266 157.939 121.991C167.123 121.822 176.395 121.757 185.502 121.797C227.722 122.016 262.577 124.346 295.191 129.124C340.674 135.789 384.407 145.701 425.169 158.586C456.563 168.509 488.377 181.081 522.427 197.018C552.91 211.285 582.563 226.896 617.712 245.946C634.68 255.144 652.056 264.729 670.453 274.878C697.516 289.807 725.501 305.246 755.526 321.288C785.226 337.194 812.73 349.992 839.613 360.413C904.213 385.46 974.404 401.419 1048.24 407.852C1073.15 410.027 1098.99 411.284 1125.06 411.586C1156.55 411.912 1187.72 410.886 1217.73 408.538C1262.09 405.07 1314.51 399.494 1366.95 384.436C1391.99 377.243 1414.68 367.828 1436.33 355.649C1473.22 334.891 1502.1 309.199 1530.03 284.351C1546.48 269.715 1562.01 255.891 1578.64 243.509C1581.66 241.257 1584.68 238.997 1587.7 236.734C1605.17 223.639 1623.24 210.098 1643.26 197.915C1664.22 185.101 1685.72 175.243 1707.17 168.616C1732.57 160.766 1757.49 157.631 1781.22 159.299C1795.67 160.314 1810.1 162.729 1825.34 166.682C1860.79 175.784 1894.02 192.363 1926.15 208.394C1931.01 210.818 1936.04 213.325 1940.94 215.737C1974.92 232.47 2007.97 251.518 2039.16 272.345C2073.2 295.019 2106.54 320.852 2138.24 349.127C2166.26 374.117 2193.75 401.676 2219.94 431.036L2219.31 431.246Z" fill="#FFE492"/>
<path d="M2217.09 414.997C2165.47 350.665 2105.62 296.36 2039.22 253.59C2007.2 232.91 1972.92 214.496 1937.32 198.854C1935.63 198.109 1933.94 197.364 1932.24 196.618C1895.23 180.332 1856.96 163.491 1817.21 155.909C1801.81 152.971 1787.4 151.449 1773.15 151.252C1718.21 150.496 1671.36 175.055 1641.73 195.788C1624.3 207.918 1608.82 221.212 1593.85 234.069C1590.16 237.248 1586.33 240.535 1582.55 243.736C1568.16 255.931 1554.79 269.796 1540.63 284.476C1514.87 311.179 1488.24 338.79 1451.48 360.71C1430.21 373.392 1407.27 382.904 1381.35 389.79C1330.3 403.355 1278.45 406.917 1230.03 408.746C1200.18 409.873 1168.98 409.68 1137.3 408.176C1111.28 406.901 1085.57 404.721 1060.86 401.698C989.443 392.979 920.086 374.971 854.73 348.174C828.556 337.444 801.79 324.686 770.503 308.024C711.039 276.445 666.882 254.203 627.333 235.906C548.671 199.518 488.634 178.109 426.591 164.323C385.054 155.093 341.423 148.75 296.903 145.468C266.016 143.192 233.236 143.395 190.623 146.134C181.891 146.702 172.957 147.37 164.067 148.124C155.669 148.846 147.139 149.673 138.106 150.548C104.753 153.778 66.9488 157.441 23.6815 156.757C0.876038 156.397 -22.4181 155.411 -44.9443 154.458C-70.5454 153.376 -97.0171 152.256 -122.115 152.104C-147.279 151.952 -170.801 153.177 -192.008 155.748C-267.867 164.94 -328.003 185.298 -352.87 210.203L-353.575 209.941C-347.117 203.471 -338.315 197.257 -327.416 191.473C-316.895 185.888 -304.368 180.676 -290.18 175.978C-262.621 166.852 -228.729 159.683 -192.17 155.254C-170.904 152.678 -147.33 151.449 -122.108 151.601C-96.9877 151.753 -70.5013 152.873 -44.8892 153.957C-22.3703 154.91 0.91275 155.896 23.6999 156.256C66.89 156.938 104.654 153.28 137.97 150.053C147.007 149.177 155.544 148.352 163.946 147.628C172.847 146.874 181.788 146.206 190.527 145.635C233.207 142.894 266.041 142.689 296.995 144.971C341.577 148.258 385.27 154.61 426.866 163.853C488.994 177.658 549.093 199.088 627.825 235.508C667.389 253.811 711.56 276.06 771.039 307.649C802.305 324.297 829.041 337.042 855.186 347.76C920.454 374.519 989.708 392.502 1061.02 401.209C1085.69 404.227 1111.38 406.403 1137.36 407.677C1169 409.18 1200.16 409.372 1229.98 408.247C1278.32 406.421 1330.08 402.868 1381.02 389.334C1406.84 382.474 1429.7 372.994 1450.89 360.357C1487.58 338.484 1514.18 310.902 1539.91 284.228C1554.08 269.538 1567.46 255.663 1581.87 243.45C1585.65 240.251 1589.48 236.964 1593.18 233.785C1608.15 220.917 1623.64 207.614 1641.1 195.464C1660.44 181.933 1680.71 171.229 1701.35 163.65C1725.53 154.771 1749.7 150.436 1773.17 150.756C1787.49 150.952 1801.98 152.484 1817.45 155.435C1857.33 163.044 1895.66 179.907 1932.72 196.218C1934.42 196.964 1936.11 197.711 1937.8 198.453C1973.44 214.113 2007.76 232.55 2039.81 253.252C2106.28 296.06 2166.17 350.408 2217.83 414.785L2217.09 414.997Z" fill="#FFE492"/>
<path d="M1248.31 408.514C1246.25 408.514 1244.22 408.512 1242.22 408.505C1212.52 408.429 1181.33 407.02 1149.53 404.315C1123.61 402.068 1098.06 398.967 1073.58 395.101C1038.61 389.587 1003.51 381.663 969.254 371.55C936.173 361.784 902.858 349.675 870.229 335.555C838.258 321.722 808.396 306.308 785.95 294.424C733.433 266.695 683.465 243.518 637.435 225.535C562.884 196.41 496.448 178.655 428.351 169.66C387.269 164.234 343.194 161.372 300.757 161.372C300.099 161.372 299.445 161.372 298.788 161.374C262.331 161.45 227.719 165.573 195.752 170.018C187.431 171.183 178.824 172.455 170.169 173.803C165.426 174.55 160.676 175.319 155.651 176.133C120.205 181.882 80.027 188.395 31.2163 187.86C1.48987 187.534 -28.8722 185.66 -58.235 183.847C-77.1942 182.675 -96.7964 181.466 -115.495 180.735C-141.199 179.731 -164.853 180.053 -185.807 181.696C-261.262 187.608 -324.201 203.491 -354.174 224.186L-354.864 223.817C-339.49 213.204 -316.365 204.014 -286.132 196.502C-257.258 189.329 -222.605 184.017 -185.924 181.144C-164.915 179.498 -141.199 179.172 -115.436 180.18C-96.7192 180.911 -77.106 182.123 -58.1394 183.295C-28.795 185.108 1.54861 186.982 31.2347 187.306C79.9204 187.84 120.028 181.336 155.416 175.599C160.445 174.783 165.195 174.014 169.941 173.267C178.603 171.919 187.218 170.644 195.546 169.479C227.568 165.028 262.239 160.898 298.784 160.82C341.897 160.728 386.762 163.599 428.545 169.119C463.69 173.763 497.763 180.598 532.702 190.016C566.352 199.087 600.773 210.552 637.927 225.07C683.994 243.066 733.999 266.261 786.549 294.008C808.976 305.885 838.816 321.288 870.754 335.106C936.963 363.756 1005.28 383.76 1073.81 394.566C1098.25 398.428 1123.77 401.524 1149.66 403.769C1181.42 406.47 1212.56 407.879 1242.22 407.953C1288.63 408.069 1342.52 407.116 1395.09 394.227C1421.69 387.702 1444.7 378.162 1465.45 365.062C1501.88 342.055 1526.03 312.526 1549.39 283.967C1561.41 269.277 1572.75 255.401 1585.09 243.39C1589.05 239.542 1593.04 235.578 1596.89 231.744C1609.93 218.789 1623.4 205.396 1638.93 193.016C1656.67 178.774 1675.71 167.221 1695.51 158.68C1718.48 148.777 1741.89 143.237 1765.09 142.213C1779.41 141.58 1793.95 142.226 1809.53 144.189C1851.2 149.435 1892.49 164.674 1934.65 181.168C1971.41 195.549 2007.99 213.872 2040.45 234.158C2076.5 256.627 2110.37 282.985 2141.12 312.501C2168.52 338.797 2193.61 367.743 2215.71 398.535L2214.87 398.759C2167.42 332.631 2108.51 277.382 2039.79 234.55C2007.38 214.293 1970.85 195.997 1934.15 181.64C1892.07 165.175 1850.85 149.965 1809.35 144.737C1793.85 142.785 1779.39 142.143 1765.16 142.772C1722.52 144.657 1677.95 162.62 1639.66 193.356C1624.16 205.714 1610.7 219.095 1597.68 232.037C1593.82 235.873 1589.83 239.84 1585.87 243.688C1573.55 255.676 1562.21 269.541 1550.21 284.217C1538.75 298.229 1526.9 312.72 1513.3 326.65C1497.88 342.442 1482.45 355.132 1466.11 365.451C1445.28 378.609 1422.16 388.192 1395.43 394.748C1371.86 400.529 1346.52 404.351 1317.97 406.434C1293.8 408.19 1269.52 408.514 1248.31 408.514Z" fill="#FFE492"/>
<path d="M1307.22 409.634C1288.49 409.634 1270.5 408.954 1254.4 408.265C1224.8 407 1193.63 404.373 1161.75 400.456C1135.94 397.238 1110.55 393.218 1086.28 388.503C1019.83 375.617 954.221 354.169 885.713 322.936C855.836 309.317 827.671 294.663 801.39 280.823C749.505 253.579 697.744 231.489 647.538 215.162C573.699 191.151 504.614 178.387 430.121 174.993C387.677 173.059 342.918 173.848 300.68 177.273C265.325 180.14 231.995 187.057 200.88 193.895C193.096 195.614 184.815 197.492 176.274 199.475C174.14 199.974 171.987 200.482 169.805 200.994C133.97 209.427 93.4208 218.97 41.3811 218.97C40.5031 218.97 39.6288 218.968 38.7435 218.961C3.53607 218.744 -32.4098 215.685 -67.1764 212.725C-80.9596 211.551 -95.213 210.339 -108.89 209.358C-135.604 207.444 -158.74 206.878 -179.624 207.634C-255.582 210.384 -319.697 221.51 -355.522 238.165L-356.135 237.675C-338.425 229.443 -312.817 222.295 -282.087 217.005C-251.861 211.802 -216.452 208.35 -179.687 207.019C-158.744 206.261 -135.549 206.827 -108.776 208.745C-95.0844 209.727 -80.8273 210.941 -67.0404 212.113C-32.3069 215.068 3.6059 218.125 38.7472 218.342C91.8706 218.673 133.081 208.971 169.434 200.414C171.613 199.902 173.769 199.395 175.903 198.894C184.452 196.909 192.736 195.03 200.527 193.311C231.694 186.46 265.086 179.534 300.536 176.658C342.841 173.229 387.673 172.437 430.188 174.373C467.103 176.055 502.3 180.026 537.786 186.51C574.335 193.188 610.387 202.38 648.004 214.614C698.273 230.963 750.1 253.08 802.04 280.351C828.31 294.187 856.457 308.832 886.308 322.437C954.725 353.627 1020.23 375.045 1086.58 387.91C1110.81 392.617 1136.17 396.632 1161.94 399.845C1193.77 403.758 1224.9 406.383 1254.46 407.644C1304.19 409.768 1357.1 410.859 1409.14 399.105C1436.53 392.918 1459.71 383.318 1479.99 369.753C1516.13 345.589 1538.63 312.631 1558.48 283.551C1568.46 268.919 1577.89 255.099 1588.3 243.319C1592.05 239.068 1595.84 234.675 1599.49 230.427C1610.92 217.134 1622.74 203.39 1636.74 190.554C1652.93 175.601 1670.74 163.198 1689.67 153.691C1711.42 142.774 1734.07 136.03 1757 133.654C1771.33 132.167 1785.92 131.93 1801.6 132.922C1845.41 135.702 1889.91 149.434 1931.48 163.862C1969.87 177.184 2007.76 194.883 2041.07 215.046C2078.13 237.409 2112.27 264.032 2142.55 294.169C2169.62 321.12 2193.52 350.759 2213.58 382.267L2212.64 382.488C2170 315.515 2110.42 257.765 2040.36 215.48C2007.12 195.355 1969.29 177.689 1930.99 164.395C1889.51 150 1845.12 136.301 1801.5 133.533C1785.91 132.545 1771.41 132.782 1757.17 134.257C1714.84 138.646 1672.37 158.758 1637.59 190.89C1623.62 203.699 1611.81 217.429 1600.39 230.708C1596.74 234.959 1592.96 239.352 1589.2 243.607C1578.81 255.361 1569.39 269.167 1559.41 283.783C1539.53 312.908 1517 345.92 1480.74 370.164C1460.34 383.803 1437.04 393.457 1409.5 399.68C1385.6 405.077 1359.82 408.203 1330.67 409.229C1322.79 409.52 1314.95 409.634 1307.22 409.634Z" fill="#FFE492"/>
<path d="M1344.2 412.055C1343.93 412.055 1343.66 412.055 1343.39 412.055C1316.92 412.015 1290.93 410.043 1266.58 408.026C1237.02 405.58 1205.87 401.732 1173.97 396.594C1148.28 392.411 1123.05 387.468 1098.99 381.905C1035.19 367.177 972.346 344.432 901.208 310.319C875.589 298.037 850.377 284.812 825.992 272.025C822.943 270.424 819.89 268.826 816.837 267.227C764.684 239.99 711.127 218.984 657.658 204.795C584.44 185.367 510.598 177.363 431.91 180.325C388.764 181.951 344.046 186.394 302.589 193.173C269.88 198.523 240.734 207.107 206.026 217.772C198.991 219.943 191.479 222.286 182.39 225.148L181.883 225.309C164.35 230.867 144.476 237.166 122.184 241.955C96.5833 247.455 71.7463 250.102 46.2775 250.071C6.56262 250.011 -33.9678 245.512 -73.1611 241.159C-82.7638 240.092 -92.6971 238.99 -102.285 237.993C-129.782 235.138 -153.057 233.696 -173.442 233.586C-248.5 233.184 -315.367 239.954 -356.893 252.157L-357.37 251.553C-337.03 245.575 -309.592 240.723 -278.025 237.521C-246.399 234.313 -210.229 232.721 -173.431 232.918C-152.988 233.027 -129.653 234.471 -102.098 237.333C-92.5024 238.331 -82.5691 239.433 -72.9627 240.499C-33.8172 244.846 6.6618 249.34 46.2812 249.4C46.4575 249.4 46.6375 249.4 46.8138 249.4C103.486 249.4 146.661 235.717 181.377 224.714L181.887 224.553C190.979 221.689 198.492 219.346 205.53 217.175C240.297 206.492 269.494 197.893 302.307 192.527C343.833 185.734 388.624 181.285 431.844 179.657C470.35 178.208 506.671 179.313 542.888 183.037C581.916 187.051 619.603 193.966 658.099 204.182C711.67 218.398 765.319 239.437 817.557 266.719C820.61 268.318 823.663 269.919 826.712 271.52C851.086 284.302 876.29 297.523 901.888 309.796C972.934 343.866 1035.69 366.58 1099.37 381.283C1123.4 386.839 1148.6 391.774 1174.25 395.953C1206.11 401.084 1237.22 404.925 1266.72 407.367C1319.58 411.745 1371.32 414.781 1423.22 404.013C1451.39 398.168 1474.73 388.507 1494.55 374.475C1530.37 349.127 1549.94 314.004 1567.2 283.012C1575.28 268.504 1582.92 254.798 1591.53 243.281C1594.84 238.849 1598.17 234.266 1601.38 229.832C1611.43 215.97 1621.83 201.638 1634.57 188.124C1649.24 172.453 1665.82 159.199 1683.84 148.73C1704.39 136.8 1726.28 128.858 1748.92 125.128C1762.95 122.817 1777.28 121.69 1792.67 121.69C1793 121.69 1793.34 121.69 1793.67 121.692C1841.53 121.844 1890.77 135.076 1928.33 146.586C1968.34 158.85 2007.55 175.923 2041.71 195.961C2079.78 218.221 2114.19 245.105 2143.99 275.869C2170.73 303.475 2193.44 333.809 2211.47 366.032L2210.43 366.249C2183.59 318.303 2132.4 249.926 2040.95 196.446C2006.86 176.453 1967.75 159.42 1927.83 147.185C1890.39 135.706 1841.29 122.512 1793.67 122.363C1777.99 122.307 1763.45 123.429 1749.21 125.777C1707.27 132.688 1666.89 154.948 1635.52 188.457C1622.81 201.94 1612.43 216.256 1602.39 230.103C1599.17 234.539 1595.85 239.124 1592.53 243.558C1583.94 255.046 1576.32 268.734 1568.25 283.227C1550.95 314.274 1531.35 349.464 1495.39 374.911C1475.43 389.037 1451.94 398.763 1423.58 404.646C1399.55 409.63 1373.57 412.055 1344.2 412.055Z" fill="#FFE492"/>
<path d="M1373.6 415.203C1367.89 415.203 1362.07 415.091 1356.1 414.868C1329.99 413.891 1304.61 410.959 1278.75 407.784C1248.77 404.104 1218.49 399.181 1186.19 392.733C1160.63 387.586 1135.56 381.723 1111.69 375.304C1051.12 359.045 990.987 335.11 916.704 297.699C898.255 288.409 879.814 278.665 861.978 269.241C852.269 264.112 842.233 258.806 832.289 253.626C779.514 226.205 724.168 206.288 667.786 194.424C593.29 178.749 516.726 175.878 433.711 185.649C389.852 190.811 345.174 198.907 304.511 209.06C271.846 217.217 243.391 228.671 213.264 240.799L211.181 241.637C206.475 243.537 201.718 245.465 196.902 247.414C194.128 248.539 191.336 249.67 188.518 250.811C170.952 257.959 151.978 265.415 130.219 271.155C104.956 277.818 79.9683 281.096 53.8199 281.176C10.2881 281.306 -34.1142 275.148 -77.0508 269.187C-83.1783 268.336 -89.5189 267.457 -95.6721 266.623C-124.521 262.71 -147.264 260.459 -167.255 259.533C-241.028 256.119 -310.649 258.525 -358.273 266.135L-358.578 265.433C-310.829 257.802 -241.064 255.388 -167.163 258.808C-147.117 259.736 -124.315 261.995 -95.4113 265.914C-89.2544 266.75 -82.9138 267.629 -76.7827 268.481C-34.3714 274.368 9.46896 280.452 52.424 280.452C52.8868 280.452 53.3497 280.452 53.8163 280.449C109.375 280.28 148.925 266.046 187.861 250.207C190.679 249.067 193.47 247.935 196.244 246.811C201.06 244.859 205.814 242.934 210.523 241.031L212.606 240.193C242.784 228.045 271.288 216.571 304.059 208.387C344.796 198.214 389.551 190.105 433.487 184.933C516.711 175.138 593.481 178.018 668.179 193.736C724.701 205.631 780.175 225.592 833.068 253.073C843.012 258.256 853.052 263.56 862.761 268.691C880.589 278.113 899.026 287.855 917.464 297.138C991.659 334.506 1051.71 358.408 1112.17 374.64C1136.01 381.048 1161.04 386.904 1186.56 392.042C1218.82 398.481 1249.05 403.398 1278.99 407.071C1324.43 412.65 1380.99 419.594 1437.31 408.898C1466.26 403.4 1489.75 393.678 1509.11 379.176C1544.59 352.614 1561.03 315.255 1575.55 282.296C1581.85 267.978 1587.8 254.453 1594.76 243.229C1597.46 238.856 1600.18 234.332 1602.8 229.957C1611.6 215.283 1620.71 200.11 1632.39 185.68C1645.58 169.28 1660.92 155.174 1678 143.753C1697.35 130.812 1718.49 121.674 1740.83 116.592C1755.16 113.329 1769.85 111.319 1785.74 110.445C1807.02 109.274 1829.67 110.526 1854.98 114.264C1876.39 117.43 1899.35 122.344 1925.17 129.291C1966.81 140.495 2007.33 156.944 2042.35 176.859C2081.43 199.015 2116.11 226.165 2145.43 257.552C2171.83 285.816 2193.34 316.845 2209.35 349.782L2208.21 349.987C2174.39 280.452 2115.2 219.155 2041.53 177.392C2006.61 157.53 1966.2 141.128 1924.69 129.958C1869.06 114.991 1824.95 109.019 1785.85 111.17C1770.07 112.037 1755.48 114.034 1741.24 117.271C1688.1 129.361 1653.3 161.32 1633.46 186C1621.8 200.394 1612.71 215.549 1603.92 230.205C1601.29 234.583 1598.58 239.108 1595.87 243.484C1588.94 254.674 1583 268.183 1576.7 282.484C1562.16 315.515 1545.67 352.952 1510.04 379.635C1490.52 394.251 1466.85 404.051 1437.66 409.593C1417.88 413.35 1396.78 415.203 1373.6 415.203Z" fill="#FFE492"/>
<path d="M1399.07 418.812C1360.22 418.812 1322.87 412.737 1290.92 407.541C1260.86 402.653 1230.59 396.545 1198.4 388.869C1172.98 382.765 1148.08 375.982 1124.38 368.704C1053.36 346.913 990.034 315.636 932.19 285.08C920.38 278.842 908.448 272.412 896.913 266.194C880.896 257.559 864.332 248.631 847.735 240.028C794.171 212.336 737.036 193.504 677.921 184.053C601.448 171.829 522.155 174.09 435.51 190.966C390.898 199.654 346.264 211.404 306.432 224.944C275.71 235.386 249.716 248.569 222.197 262.525C220.246 263.513 218.292 264.506 216.327 265.499L215.261 266.04C208.572 269.436 201.654 272.946 194.642 276.47C177.839 284.951 159.335 293.722 137.933 300.423C113.089 308.201 88.0421 312.081 61.3537 312.282C14.5084 312.637 -33.2369 304.622 -79.4063 296.87C-82.6427 296.327 -85.8644 295.786 -89.0714 295.251C-119.518 290.167 -141.728 287.153 -161.081 285.476C-233.002 279.247 -305.386 277.288 -359.674 280.103L-359.784 279.323C-305.408 276.501 -232.917 278.462 -160.901 284.7C-141.493 286.382 -119.235 289.402 -88.7334 294.496C-85.5264 295.03 -82.3047 295.571 -79.0646 296.117C-32.9835 303.853 14.67 311.848 61.3353 311.499C119.293 311.061 160.11 292.877 193.819 275.866C200.832 272.343 207.749 268.832 214.438 265.438L215.504 264.897C217.469 263.902 219.424 262.912 221.374 261.923C248.941 247.943 274.979 234.737 305.804 224.26C345.71 210.695 390.428 198.926 435.117 190.221C476.195 182.221 514.778 177.602 553.068 176.1C595.78 174.425 637.894 176.846 678.244 183.297C737.547 192.777 794.851 211.663 848.565 239.431C865.174 248.039 881.741 256.969 897.762 265.606C909.297 271.824 921.221 278.252 933.028 284.488C990.813 315.01 1054.06 346.254 1124.96 368.004C1148.62 375.271 1173.48 382.045 1198.87 388.14C1231.01 395.805 1261.23 401.904 1291.24 406.785C1337.33 414.28 1394.69 423.608 1451.37 413.793C1481.11 408.641 1504.75 398.859 1523.65 383.888C1558.76 356.076 1571.89 316.418 1583.48 281.427C1588.14 267.368 1592.54 254.089 1597.96 243.185C1599.97 239.151 1601.98 234.983 1603.93 230.952C1611.55 215.185 1619.43 198.879 1630.2 183.243C1641.92 166.101 1656.03 151.138 1672.14 138.776C1690.31 124.827 1710.69 114.492 1732.72 108.06C1747.02 103.883 1761.76 100.988 1777.78 99.2058C1799.37 96.8067 1823.32 96.8872 1848.97 99.445C1871.44 101.685 1896 105.909 1921.98 112.002C1965.24 122.146 2007.08 137.969 2042.97 157.761C2083.06 179.813 2118.01 207.225 2146.85 239.238C2172.9 268.159 2193.21 299.886 2207.22 333.536L2205.98 333.728C2176.3 262.426 2118.1 200.14 2042.11 158.342C2006.33 138.615 1964.64 122.843 1921.53 112.733C1865.64 99.6283 1818.7 95.454 1778.01 99.9771C1762.11 101.746 1747.47 104.621 1733.27 108.766C1680.86 124.071 1648.94 157.877 1631.39 183.545C1620.64 199.14 1612.77 215.424 1605.16 231.171C1603.21 235.203 1601.2 239.372 1599.19 243.41C1593.79 254.279 1589.39 267.54 1584.74 281.581C1579.17 298.415 1572.85 317.494 1563.68 335.381C1553.17 355.875 1540.41 371.897 1524.67 384.364C1515.57 391.573 1505.12 397.708 1493.6 402.6C1481.2 407.861 1467.11 411.881 1451.72 414.546C1434.11 417.598 1416.44 418.812 1399.07 418.812Z" fill="#FFE492"/>
<path d="M1422.03 422.771C1409.19 422.771 1395.73 422.011 1381.52 420.493C1353.52 417.504 1326.73 412.079 1303.09 407.297C1273.29 401.267 1242.17 393.765 1210.61 385.003C1185.35 377.951 1160.61 370.246 1137.08 362.099C1069.53 338.741 1011.34 307.682 947.679 272.458C942.021 269.328 936.276 266.135 930.722 263.045C908.845 250.884 886.227 238.31 863.183 226.428C808.73 198.413 749.81 180.667 688.057 173.682C610.163 164.87 525.796 172.472 437.31 196.28C391.905 208.497 347.312 223.897 308.354 240.821C279.02 253.563 254.874 268.586 229.31 284.492C226.712 286.108 224.104 287.729 221.481 289.357C214.953 293.413 207.922 297.766 200.77 302.124C185.77 311.293 167.491 321.741 145.651 329.685C121.204 338.58 96.095 343.063 68.8959 343.387C19.1044 343.984 -31.5797 333.949 -80.5961 324.245L-82.4623 323.877C-106.462 319.128 -131.85 314.329 -154.898 311.416C-225.151 302.537 -298.369 296.373 -361.058 294.059L-360.974 293.223C-298.218 295.539 -224.934 301.708 -154.618 310.595C-131.504 313.518 -106.072 318.323 -82.0362 323.078L-80.17 323.447C-31.2601 333.129 19.3212 343.139 68.8702 342.546C126.093 341.862 165.614 322.428 199.796 301.527C206.948 297.171 213.972 292.818 220.5 288.764C223.123 287.139 225.731 285.516 228.329 283.901C253.937 267.969 278.128 252.919 307.556 240.134C346.588 223.177 391.266 207.748 436.756 195.509C478.271 184.34 519.124 176.645 558.174 172.638C602.793 168.061 646.579 168.133 688.314 172.853C750.302 179.864 809.439 197.673 864.076 225.785C887.138 237.677 909.768 250.256 931.655 262.424C937.209 265.511 942.955 268.704 948.612 271.834C1012.21 307.025 1070.34 338.05 1137.77 361.368C1161.27 369.502 1185.97 377.195 1211.19 384.238C1242.71 392.987 1273.77 400.477 1303.53 406.499C1350.17 415.938 1408.22 427.683 1465.46 418.684C1495.99 413.884 1519.79 404.044 1538.22 388.598C1572.93 359.498 1582.98 315.637 1591.06 280.393C1594.2 266.665 1597.17 253.699 1601.19 243.146C1602.46 239.819 1603.74 236.391 1604.98 233.076C1611.41 215.851 1618.06 198.037 1628.04 180.812C1643.44 154.006 1672.7 118.147 1724.63 99.5383C1738.96 94.4003 1753.76 90.6172 1769.85 87.9744C1811.95 80.9605 1862.07 83.2299 1918.83 94.7156C1963.71 103.8 2006.86 118.997 2043.61 138.666C2084.72 160.613 2119.94 188.289 2148.3 220.93C2161.3 235.902 2172.8 251.893 2182.47 268.458C2191.7 284.282 2199.32 300.713 2205.11 317.296L2203.77 317.471C2178.25 244.398 2121.04 181.121 2042.7 139.294C2006.08 119.699 1963.1 104.56 1918.39 95.5093C1861.9 84.0751 1812.04 81.8124 1770.21 88.7816C1754.24 91.4043 1739.56 95.1583 1725.32 100.258C1673.76 118.738 1644.66 154.413 1629.34 181.087C1619.39 198.268 1612.75 216.056 1606.32 233.259C1605.09 236.575 1603.81 240.005 1602.54 243.334C1598.52 253.851 1595.56 266.799 1592.42 280.507C1588.36 298.242 1583.75 318.343 1575.88 337.314C1566.84 359.114 1554.89 376.051 1539.33 389.09C1530.45 396.529 1520.07 402.803 1508.48 407.735C1495.99 413.05 1481.63 417.007 1465.8 419.493C1451.91 421.68 1437.41 422.771 1422.03 422.771Z" fill="#FFE492"/>
<path d="M1443.19 426.953C1427.79 426.953 1411.56 425.739 1394.22 423.304C1366.13 419.362 1339.1 412.82 1315.25 407.047C1285.22 399.78 1254.13 391.063 1222.82 381.133C1197.73 373.14 1173.15 364.514 1149.78 355.492C1085.44 330.685 1030.27 298.712 971.85 264.866C968.959 263.191 966.068 261.514 963.17 259.837C936.004 244.115 907.915 227.855 878.633 212.83C823.232 184.459 762.527 167.798 698.203 163.308C617.406 157.667 530.236 170.548 439.11 201.589C393.528 217.114 347.774 236.685 310.274 256.694C281.958 271.802 259.248 288.801 235.205 306.8C232.358 308.93 229.504 311.068 226.627 313.21C220.882 317.496 214.045 322.578 206.889 327.777C193.635 337.429 175.576 349.695 153.365 358.922C129.307 368.919 104.143 374.014 76.4335 374.495C53.6574 374.842 28.5229 372.702 -0.410156 367.951C-25.2508 363.872 -49.2796 358.542 -75.8688 352.505C-100.14 346.927 -125.756 341.165 -148.738 337.359C-216.812 326.086 -288.719 316.215 -362.455 308.014L-362.19 307.135C-288.41 315.338 -216.463 325.219 -148.352 336.496C-125.308 340.313 -99.6552 346.084 -75.3545 351.667C-30.7868 361.789 24.6803 374.39 76.3931 373.601C135.515 372.572 173.511 350.692 205.761 327.2C212.914 322.006 219.747 316.926 225.488 312.642C228.365 310.5 231.219 308.362 234.062 306.234C258.146 288.206 280.897 271.178 309.304 256.021C346.881 235.972 392.724 216.363 438.393 200.808C529.795 169.674 617.267 156.759 698.372 162.421C729.468 164.592 760.014 169.633 789.153 177.405C820.419 185.743 850.843 197.434 879.581 212.149C908.896 227.189 937.003 243.457 964.183 259.191C967.082 260.87 969.977 262.545 972.868 264.22C1031.23 298.037 1086.36 329.979 1150.57 354.739C1173.91 363.747 1198.45 372.362 1223.5 380.342C1254.77 390.256 1285.82 398.962 1315.8 406.217C1362.91 417.62 1421.55 431.812 1479.54 423.581C1510.95 419.123 1534.9 409.223 1552.76 393.317C1587.17 362.936 1593.3 316.526 1598.23 279.236C1599.99 265.899 1601.65 253.302 1604.41 243.115C1604.98 241.014 1605.55 238.901 1606.12 236.777C1611.27 217.591 1616.6 197.75 1625.86 178.387C1639.08 150.537 1665.53 112.773 1716.52 91.0225C1730.75 84.9544 1745.59 80.2859 1761.9 76.7487C1784.57 71.7873 1809.83 69.4553 1836.98 69.813C1861.77 70.1395 1888.24 72.704 1915.65 77.4329C1962.15 85.453 2006.61 100.024 2044.23 119.57C2086.35 141.41 2121.85 169.354 2149.72 202.621C2162.51 217.886 2173.59 234.205 2182.64 251.126C2191.31 267.332 2198.16 284.132 2202.99 301.06L2201.54 301.212C2180.5 227.449 2122.82 161.49 2043.28 120.25C2005.82 100.789 1961.55 86.278 1915.24 78.2892C1858.15 68.438 1805.3 68.1965 1762.39 77.5872C1746.2 81.0975 1731.47 85.7302 1717.36 91.7514C1666.72 113.352 1640.42 150.921 1627.27 178.633C1618.03 197.944 1612.71 217.756 1607.57 236.917C1607 239.042 1606.43 241.157 1605.86 243.258C1603.11 253.407 1601.45 265.988 1599.69 279.305C1594.75 316.702 1588.6 363.246 1553.97 393.822C1545.36 401.489 1535.06 407.906 1523.37 412.889C1510.79 418.251 1496.15 422.141 1479.87 424.453C1468.12 426.117 1455.94 426.953 1443.19 426.953Z" fill="#FFE492"/>
<path d="M1463.07 431.307C1445.53 431.307 1426.95 429.58 1406.93 426.115C1378.6 421.212 1351.4 413.554 1327.4 406.799C1297.08 398.263 1266 388.324 1235.02 377.266C1210.11 368.344 1185.7 358.795 1162.46 348.888C1105.24 324.499 1056.33 294.621 1004.55 262.988C996.089 257.816 987.335 252.47 978.651 247.214C948.124 228.746 922.056 213.517 894.074 199.232C837.685 170.486 775.198 154.908 708.343 152.932C624.336 150.448 534.352 168.603 440.896 206.892C394.47 225.915 348.756 249.235 312.178 272.56C284.623 290.131 263.081 309.259 240.275 329.51C237.45 332.018 234.614 334.536 231.76 337.056C226.676 341.552 219.946 347.477 212.999 353.418C183.765 378.477 145.571 404.277 83.9616 405.596C82.0403 405.634 80.1117 405.652 78.1867 405.652C30.0778 405.652 -19.0378 394.064 -69.2848 381.125L-72.4221 380.311C-97.3105 373.845 -120.821 367.739 -142.583 363.294C-224.596 346.542 -303.912 332.403 -363.85 321.957L-363.42 321.042C-303.467 331.493 -224.129 345.635 -142.088 362.393C-120.267 366.849 -96.73 372.964 -71.8086 379.437L-68.675 380.25C-16.5876 393.663 34.2803 405.628 83.9065 404.648C144.833 403.343 182.707 377.742 211.724 352.87C218.668 346.934 225.39 341.013 230.474 336.519C233.329 333.997 236.161 331.482 238.986 328.973C261.828 308.691 283.403 289.532 311.047 271.905C347.698 248.531 393.503 225.164 440.022 206.103C483.197 188.413 526.387 174.83 568.391 165.728C616.584 155.284 663.698 150.66 708.416 151.982C775.617 153.967 838.42 169.62 895.074 198.501C923.096 212.808 949.189 228.053 979.746 246.536C988.434 251.793 997.188 257.141 1005.66 262.313C1057.38 293.915 1106.24 323.763 1163.35 348.103C1186.56 357.999 1210.93 367.533 1235.81 376.44C1266.74 387.486 1297.78 397.409 1328.05 405.932C1375.58 419.313 1434.73 435.966 1493.61 428.469C1525.79 424.371 1549.89 414.412 1567.3 398.026C1601.28 366.261 1603.32 317.239 1604.96 277.85C1605.5 264.998 1606 252.857 1607.62 243.075L1607.66 242.852C1611.29 220.947 1615.05 198.298 1623.67 175.95C1631.13 156.458 1641.52 138.933 1654.55 123.859C1669.24 106.864 1687.36 92.9479 1708.4 82.4952C1722.48 75.5014 1737.37 69.9453 1753.93 65.5115C1798.66 53.4624 1853.48 51.6022 1912.46 60.1365C1936.19 63.5708 1959.6 68.7737 1982.05 75.5975C2004.62 82.4617 2025.75 90.8305 2044.85 100.467C2088 122.202 2123.76 150.41 2151.15 184.308C2175.77 214.776 2192.96 249.533 2200.86 284.817L2199.31 284.944C2182.41 209.426 2125.75 142.452 2043.86 101.198C2005.56 81.8759 1960 67.9956 1912.1 61.0666C1853.46 52.5815 1798.99 54.4216 1754.57 66.388C1738.14 70.7882 1723.37 76.2996 1709.4 83.2375C1670.11 102.754 1640.99 134.891 1625.19 176.171C1616.6 198.461 1612.85 221.079 1609.22 242.952L1609.18 243.176C1607.56 252.922 1607.06 265.045 1606.52 277.879C1604.87 317.389 1602.82 366.558 1568.61 398.547C1560.22 406.448 1549.99 413.004 1538.23 418.03C1525.55 423.45 1510.64 427.275 1493.93 429.406C1483.97 430.672 1473.71 431.307 1463.07 431.307Z" fill="#FFE492"/>
<path d="M85.1037 436.781C63.5913 436.781 40.165 434.23 13.7263 429.021C-12.5433 423.845 -38.5228 416.699 -62.6875 409.75C-67.0627 408.484 -71.4048 407.221 -75.7176 405.967C-97.1859 399.722 -117.464 393.824 -136.416 389.229C-211.985 370.915 -284.016 354.454 -353.678 338.539L-365.22 335.901L-364.64 334.96L-353.097 337.598C-283.432 353.517 -211.39 369.978 -135.806 388.296C-116.803 392.902 -96.499 398.807 -75.0049 405.061C-70.6959 406.315 -66.3537 407.579 -61.9822 408.842C-12.378 423.107 40.3229 436.931 91.4369 435.699C154.27 434.107 191.924 404.316 217.705 378.544C224.31 371.952 230.672 365.383 235.477 360.397C238.13 357.649 240.764 354.904 243.39 352.165C265.174 329.46 285.75 308.013 312.81 287.792C348.528 261.104 394.289 233.974 441.671 211.403C485.629 190.462 529.987 173.917 573.519 162.228C623.45 148.819 672.22 141.861 718.474 141.546C788.073 140.915 852.717 155.489 910.583 184.857C942.661 201.156 971.421 218.788 995.328 233.887C1008.34 242.104 1021.34 250.527 1033.93 258.672C1078.46 287.508 1124.51 317.323 1176.16 341.473C1199.23 352.263 1223.45 362.718 1248.13 372.545C1278.67 384.679 1309.69 395.818 1340.33 405.651C1388.22 421.021 1447.82 440.148 1507.69 433.36C1540.65 429.624 1564.9 419.608 1581.85 402.738C1615.37 369.533 1613.11 317.826 1611.29 276.279C1610.75 263.993 1610.24 252.387 1610.86 243.043C1612.23 221.979 1614.31 197.498 1621.5 173.521C1627.56 153.204 1636.7 134.823 1648.69 118.89C1662.24 100.866 1679.61 85.7564 1700.31 73.9778C1714.02 66.1724 1729.39 59.5475 1745.98 54.2843C1769.66 46.7494 1796.24 42.0116 1824.97 40.205C1851.87 38.5125 1880.24 39.4023 1909.28 42.8478C1933.77 45.7544 1957.91 50.5347 1981.03 57.059C2004.29 63.6235 2025.98 71.8023 2045.48 81.3674C2067.97 92.3813 2088.65 105.387 2106.94 120.026C2124.27 133.895 2139.63 149.362 2152.6 165.997C2176.85 197.118 2192.81 232.593 2198.74 268.579L2197.1 268.68C2184.35 191.401 2128.71 123.415 2044.45 82.1522C2005.86 63.2322 1957.74 49.6247 1908.96 43.8361C1848.65 36.679 1792.55 40.6008 1746.75 55.1764C1730.29 60.3972 1715.04 66.9706 1701.44 74.7134C1662.44 96.9067 1636.09 130.21 1623.12 173.702C1615.95 197.615 1613.88 222.053 1612.51 243.083C1611.9 252.394 1612.4 263.982 1612.94 276.253C1613.84 296.749 1614.86 319.982 1611.45 342.441C1607.49 368.502 1598.27 388.397 1583.26 403.263C1575.09 411.397 1564.94 418.094 1553.11 423.165C1540.32 428.643 1525.14 432.406 1508 434.349C1499.35 435.33 1490.7 435.775 1482.11 435.775C1430.65 435.775 1380.79 419.771 1339.56 406.539C1308.88 396.69 1277.81 385.535 1247.23 373.383C1222.51 363.543 1198.26 353.073 1175.16 342.267C1123.4 318.068 1077.3 288.221 1032.73 259.358C1020.15 251.215 1007.14 242.795 994.142 234.583C970.267 219.502 941.547 201.894 909.529 185.626C851.975 156.414 787.71 141.926 718.5 142.547C609.81 143.29 508.522 180.828 442.692 212.19C395.406 234.717 349.736 261.789 314.095 288.422C287.117 308.583 266.57 329.996 244.819 352.666C242.193 355.405 239.555 358.15 236.903 360.9C232.094 365.889 225.728 372.462 219.119 379.06C208.297 389.879 191.306 405.629 168.802 417.434C157.873 423.167 146.243 427.672 134.234 430.827C120.844 434.344 106.465 436.321 91.5067 436.699C89.3871 436.754 87.2527 436.781 85.1037 436.781Z" fill="#FFE492"/>
<path d="M92.0103 467.91C70.4722 467.91 47.0937 465.162 20.7946 459.554C-6.43384 453.75 -33.3537 445.589 -56.0931 438.369C-63.0802 436.147 -70.0526 433.893 -76.7973 431.713C-95.65 425.621 -113.459 419.863 -130.251 415.163C-190.553 398.283 -250.461 381.802 -308.401 365.862C-327.566 360.59 -347.381 355.139 -366.586 349.845L-365.866 348.877C-346.661 354.171 -326.846 359.622 -307.681 364.894C-249.741 380.834 -189.826 397.317 -129.52 414.2C-112.684 418.913 -94.8529 424.675 -75.9781 430.776C-69.2371 432.956 -62.2647 435.208 -55.2849 437.43C-8.12369 452.397 46.5793 468.241 98.9607 466.749C163.274 464.876 199.396 432.346 223.686 404.217C229.912 397.01 235.933 389.775 240.481 384.277C242.818 381.455 245.139 378.636 247.457 375.823C268.294 350.524 287.973 326.63 314.577 303.683C349.178 273.839 394.903 242.95 443.321 216.708C510.749 180.319 614.964 135.932 728.529 131.119C800.751 127.975 867.224 141.466 926.093 171.221C952.543 184.596 978.699 200.024 1010.91 221.249C1027.19 231.974 1043.34 243.091 1058.96 253.839C1099.6 281.803 1141.62 310.719 1188.97 334.855C1211.9 346.551 1235.95 357.925 1260.45 368.662C1290.11 381.65 1321.12 394.005 1352.61 405.386C1400.98 422.761 1461.18 444.388 1521.77 438.267C1555 434.98 1580.1 424.617 1596.4 407.468C1629.46 372.76 1622.37 315.978 1617.18 274.518C1615.73 262.883 1614.35 251.893 1614.09 243.028C1613.48 223.326 1613.53 197.347 1619.33 171.109C1629.33 125.643 1653.85 90.1015 1692.21 65.4778C1705.66 56.8027 1721.08 49.2656 1738.04 43.0744C1762.17 34.2562 1789.39 28.3244 1818.96 25.4468C1846.82 22.737 1876.13 22.7794 1906.1 25.5743C1931.38 27.9845 1956.25 32.3534 1980 38.5557C2003.98 44.8207 2026.23 52.8027 2046.12 62.2806C2069.11 73.2318 2090.11 86.2826 2108.54 101.073C2126.01 115.09 2141.32 130.776 2154.04 147.702C2177.92 179.478 2192.64 215.668 2196.63 252.359L2194.89 252.428C2186.31 173.385 2131.69 104.384 2045.04 63.119C2005.76 44.3981 1956.32 31.4367 1905.84 26.6251C1843.6 20.8231 1785.89 26.8264 1738.94 43.9867C1722.12 50.1264 1706.82 57.6031 1693.49 66.209C1655.38 90.6694 1631.01 126.01 1621.06 171.252C1615.28 197.419 1615.24 223.346 1615.83 243.01C1616.11 251.844 1617.48 262.82 1618.93 274.44C1621.61 295.871 1624.64 320.164 1622.91 343.879C1620.88 371.495 1612.71 392.469 1597.91 408.002C1589.95 416.38 1579.88 423.221 1567.99 428.337C1555.09 433.884 1539.64 437.578 1522.06 439.318C1494.81 442.07 1465.47 439.597 1432.37 431.756C1403.61 424.939 1376.04 415.038 1351.73 406.305C1320.19 394.909 1289.14 382.535 1259.44 369.529C1234.9 358.777 1210.82 347.387 1187.85 335.676C1140.4 311.491 1098.34 282.543 1057.65 254.55C1042.04 243.804 1025.89 232.694 1009.63 221.978C977.475 200.79 951.367 185.392 924.98 172.048C866.46 142.463 800.41 129.053 728.646 132.176C615.57 136.972 511.7 181.222 444.474 217.501C396.152 243.69 350.523 274.514 315.995 304.296C289.464 327.177 269.815 351.039 249.011 376.299C246.693 379.114 244.371 381.934 242.035 384.756C237.484 390.258 231.459 397.5 225.225 404.713C200.722 433.093 164.236 465.913 99.0379 467.811C96.7198 467.876 94.3724 467.91 92.0103 467.91Z" fill="#FFE492"/>
<path d="M99.0561 499.04C40.2056 499.04 -21.5433 477.041 -76.2831 457.537C-93.1044 451.545 -108.993 445.884 -124.091 441.097L-367.953 363.787L-367.105 362.797L-123.242 440.106C-108.104 444.905 -92.197 450.573 -75.3537 456.574C-18.4979 476.831 45.9474 499.791 106.484 497.801C172.215 495.643 206.842 460.375 229.666 429.893C237.131 419.923 244.338 409.779 251.311 399.968C270.38 373.138 290.096 345.393 316.336 319.571C337.173 299.068 363.057 277.565 391.189 257.391C422.051 235.258 455.094 214.952 489.394 197.038C527.214 177.289 565.669 160.951 603.686 148.482C645.738 134.691 687.164 125.687 726.824 121.719C806.272 113.77 878.531 125.833 941.588 157.575C993.992 183.952 1038.53 216.569 1081.6 248.112C1119.09 275.569 1157.86 303.958 1201.76 328.226C1252.47 356.255 1307.35 382.121 1364.88 405.104C1413.35 424.469 1473.68 448.571 1535.85 443.154C1588.36 438.579 1618.73 417.196 1628.67 377.777C1637.12 344.248 1629.08 304.474 1622.62 272.517C1620.41 261.626 1618.33 251.339 1617.31 242.997C1611.68 197.009 1615.27 159.046 1628.29 126.942C1636.42 106.91 1648.41 89.0548 1663.93 73.871C1681.26 56.9097 1703.52 42.7701 1730.08 31.8456C1753.06 22.3946 1778.96 15.5305 1807.05 11.4433C1833.8 7.55287 1861.96 6.24936 1890.76 7.56852C1947.38 10.1621 2002.78 22.8082 2046.73 43.1747C2070.22 54.0612 2091.56 67.1589 2110.13 82.1012C2127.73 96.2632 2142.99 112.171 2155.46 129.388C2178.96 161.819 2192.46 198.726 2194.49 236.117L2192.65 236.155C2188.32 156.531 2133.35 84.7217 2045.61 44.0669C1952.44 0.892211 1820.17 -3.85901 1731.1 32.7735C1642.88 69.0616 1606.25 137.799 1619.14 242.914C1620.15 251.229 1622.23 261.503 1624.43 272.38C1630.91 304.407 1638.97 344.266 1630.48 377.947C1625.85 396.292 1616.55 411.036 1602.83 421.77C1595.12 427.805 1585.82 432.737 1575.19 436.426C1563.88 440.352 1550.73 442.989 1536.11 444.263C1530.13 444.784 1524.05 445.046 1517.87 445.046C1495.34 445.046 1471.34 441.578 1445.05 434.553C1415.42 426.638 1386.84 415.217 1363.86 406.041C1306.26 383.025 1251.3 357.124 1200.52 329.055C1156.52 304.736 1117.71 276.313 1080.18 248.828C1037.16 217.324 992.68 184.748 940.409 158.438C877.775 126.913 806.012 114.928 727.111 122.823C567.509 138.792 403.102 236.311 317.887 320.161C291.716 345.911 272.026 373.618 252.982 400.413C246.006 410.229 238.795 420.379 231.323 430.358C216.169 450.595 201.203 465.086 184.224 475.956C173.626 482.74 162.128 488.088 150.049 491.851C136.618 496.035 121.99 498.414 106.569 498.921C104.078 498.999 101.569 499.04 99.0561 499.04Z" fill="#FFE492"/>
</g>
</svg>
